<?xml version="1.0" encoding="UTF-8"?>
<svg version="1.1" viewBox="0 0 3840 2400" xmlns="http://www.w3.org/2000/svg" xmlns:cc="http://creativecommons.org/ns#" xmlns:dc="http://purl.org/dc/elements/1.1/" xmlns:rdf="http://www.w3.org/1999/02/22-rdf-syntax-ns#" xmlns:xlink="http://www.w3.org/1999/xlink">
<defs>
<linearGradient id="d" x1="3840" x2="3840" y1="1056.5" y2="-1339.6" gradientTransform="translate(0 1347.6)" gradientUnits="userSpaceOnUse">
<stop stop-color="#0785bf" offset="0"/>
<stop stop-color="#17f8de" offset="1"/>
</linearGradient>
<radialGradient id="a" cx="1922.7" cy="559.54" r="1920" gradientTransform="matrix(1.503 0 0 .75337 -965.71 1210.8)" gradientUnits="userSpaceOnUse">
<stop stop-color="#00435d" stop-opacity="0" offset="0"/>
<stop stop-color="#2e2f2f" stop-opacity=".224" offset="1"/>
</radialGradient>
<filter id="g" x="-.22075" y="-.71364" width="1.4415" height="2.4273" color-interpolation-filters="sRGB">
<feGaussianBlur stdDeviation="139.33033"/>
</filter>
<linearGradient id="f" x1="1577.1" x2="1577.1" y1="852.36" y2="-1256.2" gradientTransform="translate(0 1347.6)" gradientUnits="userSpaceOnUse">
<stop stop-color="#00648c" stop-opacity=".47451" offset="0"/>
<stop stop-color="#fff" stop-opacity="0" offset="1"/>
</linearGradient>
<radialGradient id="c" cx="1920.1" cy="198.36" r="500" fx="1913.5" fy="391.81" gradientTransform="matrix(1 0 0 .6 0 79.344)" gradientUnits="userSpaceOnUse">
<stop stop-color="#cdfffa" stop-opacity=".50196" offset="0"/>
<stop stop-color="#fff" stop-opacity="0" offset="1"/>
</radialGradient>
<filter id="h" x="-.21437" y="-.50019" width="1.4287" height="2.0004" color-interpolation-filters="sRGB">
<feGaussianBlur stdDeviation="62.524311"/>
</filter>
<radialGradient id="b" cx="1917.2" cy="529.9" r="2448.7" gradientTransform="matrix(.76555 0 0 .23918 452.3 1576.3)" gradientUnits="userSpaceOnUse">
<stop stop-color="#eaf8f6" offset="0"/>
<stop stop-color="#fff" stop-opacity="0" offset="1"/>
</radialGradient>
<linearGradient id="e" x1="1519.3" x2="1519.3" y1="-1327.5" y2="-446.64" gradientTransform="translate(0 1347.6)" gradientUnits="userSpaceOnUse">
<stop stop-color="#007e9f" stop-opacity=".25" offset="0"/>
<stop stop-color="#fff" stop-opacity="0" offset="1"/>
</linearGradient>
</defs>
<metadata>
<rdf:RDF>
<cc:Work rdf:about="">
<dc:format>image/svg+xml</dc:format>
<dc:type rdf:resource="http://purl.org/dc/dcmitype/StillImage"/>
<cc:license rdf:resource="http://creativecommons.org/licenses/by-sa/4.0/"/>
<dc:creator>
<cc:Agent>
<dc:title>Lallinaho, Pasi</dc:title>
</cc:Agent>
</dc:creator>
<dc:contributor>
<cc:Agent>
<dc:title>Steinbeiß, Simon</dc:title>
</cc:Agent>
</dc:contributor>
</cc:Work>
<cc:License rdf:about="http://creativecommons.org/licenses/by-sa/4.0/">
<cc:permits rdf:resource="http://creativecommons.org/ns#Reproduction"/>
<cc:permits rdf:resource="http://creativecommons.org/ns#Distribution"/>
<cc:requires rdf:resource="http://creativecommons.org/ns#Notice"/>
<cc:requires rdf:resource="http://creativecommons.org/ns#Attribution"/>
<cc:permits rdf:resource="http://creativecommons.org/ns#DerivativeWorks"/>
<cc:requires rdf:resource="http://creativecommons.org/ns#ShareAlike"/>
</cc:License>
</rdf:RDF>
</metadata>
<path d="m0 0h3840v2400h-3840z" fill="url(#d)" stroke-width="15"/>
<path d="m0 0h3840v2400h-3840z" fill="url(#a)" stroke-width="15"/>
<path d="m2677.4 1749.1a757.39 234.29 0 0 1-757.39 234.29 757.39 234.29 0 0 1-757.39-234.29 757.39 234.29 0 0 1 757.39-234.29 757.39 234.29 0 0 1 757.39 234.29z" fill="#d2f2ff" fill-opacity=".28378" filter="url(#g)" opacity=".803" stroke-width="15"/>
<path d="m0 0h3840v2400h-3840z" fill="url(#f)" stroke-width="15"/>
<path d="m3666.1 910.39s-0.7938 3.4719-49.455 32.852c-48.662 29.38-133.33 73.084-265.03 118.32-263.38 90.468-715.02 186.79-1438.5 186.79-672.73 0-1071.8 45.166-1360.1 127.34-288.4 82.174-460.25 205.94-632.95 320.02l193.89 540.05c182-120.22 293.16-205.13 531.62-273.08 238.46-67.946 610.16-114.33 1267.6-114.33 753.01 0 1241.3-99.761 1548.8-205.37 153.73-52.805 262.2-107.14 335.33-151.29s122.76-89.695 122.76-89.695z" color="#000000" color-rendering="auto" fill="url(#b)" fill-rule="evenodd" image-rendering="auto" opacity=".5" shape-rendering="auto" solid-color="#000000" style="isolation:auto;mix-blend-mode:normal;text-decoration-color:#000000;text-decoration-line:none;text-decoration-style:solid;text-indent:0;text-transform:none;white-space:normal"/>
<path transform="matrix(3.4575 0 0 3.7614 -4718.8 351.07)" d="m2270.1 198.36a350 150 0 0 1-350 150 350 150 0 0 1-350-150 350 150 0 0 1 350-150 350 150 0 0 1 350 150z" fill="url(#c)" filter="url(#h)" opacity=".9" stroke-opacity="0"/>
<path d="m2019.6 1521a4.8342 5.5233 0 0 1-4.8342 5.5233 4.8342 5.5233 0 0 1-4.8341-5.5233 4.8342 5.5233 0 0 1 4.8341-5.5233 4.8342 5.5233 0 0 1 4.8342 5.5233zm0.01 0.011a4.8342 5.5233 0 0 1-4.8342 5.5233 4.8342 5.5233 0 0 1-4.8341-5.5233 4.8342 5.5233 0 0 1 4.8341-5.5233 4.8342 5.5233 0 0 1 4.8342 5.5233zm-15.685-2.1678c-4.8063 3.4099 2.6382 22.706 14.882 11.439-9.6196 0.2837-12.828-2.5431-14.882-11.439zm51.732-27.985c-0.7649-0.8912-4.8237 19.787-2.9469 20.703 1.6113 1.2097 4.4178-19.627 2.9469-20.703zm-36.047 30.153a4.8342 5.5233 0 0 1-4.8342 5.5233 4.8342 5.5233 0 0 1-4.8341-5.5233 4.8342 5.5233 0 0 1 4.8341-5.5233 4.8342 5.5233 0 0 1 4.8342 5.5233zm49.978-27.464c-1.5454-1.2828-13.664 17.906-10.985 19.897 1.6114 1.2098 11.675-19.213 10.985-19.897zm-50.102 68.829c-1.6304-0.9887 11.082-15.864 14.2-14.25 4.5531 4.5395-14.414 14.604-14.2 14.25zm-8.8408-10.217c-0.2931-1.027 18.218-12.263 20.898-9.6796 4.8236 1.7545-20.728 10.983-20.898 9.6796zm-239.9-83.946c0.9332-0.1566 24.202 12.169 39.842 16.428 27.889 7.1522 53.347 28.678 65.651 41.044 0.9124 1.0583 10.568-7.2549 20.674-6.6561 13.803 0.8389 56.514 12.891 62.22 4.684 3.4604-4.8181 3.2124-10.729 7.5296-13.15 2.3242-0.6527-8.6396-20.776 3.0128-27.223 8.3084-4.167 15.349 19.162 17.482 21.777 0.9557 1.1697 6.0257 1.4552 5.4256-1.2097-0.6505-2.8947-8.8513-25.281 1.2055-29.037 16.334-6.4908 13.439 28.644 13.864 29.643 0.9037 2.127 56.887 3.7667 60.281 29.037 1.9635 13.908-44.851 31.883-49.43 35.086-4.5774 3.2027-4.1958 8.3253-2.411 11.495 2.0519 3.4377 15.69 15.041 13.866 20.567-1.254 3.1923-26.708-8.5082-28.333-6.0487-3.7067 4.698 18.53 16.458 10.851 24.802-3.044 1.9982-38.067-14.715-37.979-14.518-0.9401 0.3586-49.489 8.8998-86.806-2.4212-1.3147-0.3725-23.95 21.942-26.524 21.175-3.5193-1.295 5.188-19.408 4.2201-22.988-1.5819-1.9948-16.046 8.0991-16.879 3.0252-0.9956-6.6683 12.693-14.334 12.057-18.754-3.5297-25.107 1.5767-39.768 10.248-52.024 2.8914-4.5117-33.983-32.456-60.679-43.484-26.694-11.029-40.976-20.376-39.389-21.248z" fill="#07364a" fill-rule="evenodd"/>
<path d="m0 0h3840v2400h-3840z" fill="url(#e)" opacity=".437" stroke-width="15"/>
</svg>
