<?xml version="1.0" encoding="UTF-8" standalone="no"?>
<!-- Created with Inkscape (http://www.inkscape.org/) -->

<svg
   width="1920"
   height="1080"
   viewBox="0 0 1920 1080"
   version="1.1"
   id="svg1"
   inkscape:version="1.4 (e7c3feb, 2024-10-09)"
   sodipodi:docname="xfce-x2-export.svg"
   inkscape:export-filename="xfce-wall/xfce-yes.png"
   inkscape:export-xdpi="96"
   inkscape:export-ydpi="96"
   xmlns:inkscape="http://www.inkscape.org/namespaces/inkscape"
   xmlns:sodipodi="http://sodipodi.sourceforge.net/DTD/sodipodi-0.dtd"
   xmlns:xlink="http://www.w3.org/1999/xlink"
   xmlns="http://www.w3.org/2000/svg"
   xmlns:svg="http://www.w3.org/2000/svg"
   xmlns:dc="http://purl.org/dc/elements/1.1/"
   xmlns:rdf="http://www.w3.org/1999/02/22-rdf-syntax-ns#"
   xmlns:cc="http://creativecommons.org/ns#">
  <sodipodi:namedview
     id="namedview1"
     pagecolor="#ffffff"
     bordercolor="#000000"
     borderopacity="0.25"
     inkscape:showpageshadow="2"
     inkscape:pageopacity="0.0"
     inkscape:pagecheckerboard="0"
     inkscape:deskcolor="#d1d1d1"
     inkscape:document-units="px"
     showguides="true"
     inkscape:zoom="0.2419631"
     inkscape:cx="960.89032"
     inkscape:cy="776.97798"
     inkscape:window-width="1920"
     inkscape:window-height="992"
     inkscape:window-x="0"
     inkscape:window-y="0"
     inkscape:window-maximized="1"
     inkscape:current-layer="layer1"
     showgrid="false" />
  <defs
     id="defs1">
    <linearGradient
       id="linearGradient53"
       inkscape:collect="always">
      <stop
         style="stop-color:#003445;stop-opacity:1;"
         offset="0"
         id="stop52" />
      <stop
         style="stop-color:#003445;stop-opacity:1"
         offset="1"
         id="stop53" />
    </linearGradient>
    <linearGradient
       id="linearGradient50"
       inkscape:collect="always">
      <stop
         style="stop-color:#006888;stop-opacity:1"
         offset="0"
         id="stop50" />
      <stop
         style="stop-color:#003445;stop-opacity:1"
         offset="1"
         id="stop51" />
    </linearGradient>
    <radialGradient
       inkscape:collect="always"
       xlink:href="#linearGradient53"
       id="radialGradient18"
       cx="1305.0938"
       cy="562.04175"
       fx="1305.0938"
       fy="562.04175"
       r="960"
       gradientTransform="matrix(0.26940639,0,0,0.7611643,953.4933,124.59239)"
       gradientUnits="userSpaceOnUse" />
    <radialGradient
       inkscape:collect="always"
       xlink:href="#linearGradient50"
       id="radialGradient53"
       cx="1305.0942"
       cy="-1565.4326"
       fx="1305.0942"
       fy="-1565.4327"
       r="960.76343"
       gradientTransform="matrix(0.77795458,0,0,0.76055943,289.78986,1743.003)"
       gradientUnits="userSpaceOnUse" />
    <filter
       inkscape:collect="always"
       style="color-interpolation-filters:sRGB"
       id="filter66"
       x="-0.12291448"
       y="-0.66373823"
       width="1.245829"
       height="2.3274765">
      <feGaussianBlur
         inkscape:collect="always"
         stdDeviation="10.10256"
         id="feGaussianBlur66" />
    </filter>
    <clipPath
       clipPathUnits="userSpaceOnUse"
       id="clipPath3">
      <rect
         style="opacity:1;fill:url(#radialGradient4);fill-opacity:1;stroke:url(#radialGradient5);stroke-width:1.52686"
         id="rect4"
         width="1920"
         height="1080"
         x="0"
         y="9.2287111" />
    </clipPath>
    <radialGradient
       inkscape:collect="always"
       xlink:href="#linearGradient50"
       id="radialGradient4"
       gradientUnits="userSpaceOnUse"
       gradientTransform="matrix(0.77795458,0,0,0.76055943,289.78986,1752.2317)"
       cx="1305.0942"
       cy="-1565.4326"
       fx="1305.0942"
       fy="-1565.4327"
       r="960.76343" />
    <radialGradient
       inkscape:collect="always"
       xlink:href="#linearGradient53"
       id="radialGradient5"
       gradientUnits="userSpaceOnUse"
       gradientTransform="matrix(0.26940639,0,0,0.7611643,953.4933,133.8211)"
       cx="1305.0938"
       cy="562.04175"
       fx="1305.0938"
       fy="562.04175"
       r="960" />
  </defs>
  <g
     inkscape:label="Layer 1"
     inkscape:groupmode="layer"
     id="layer1">
    <rect
       style="opacity:1;fill:url(#radialGradient53);fill-opacity:1;stroke:url(#radialGradient18);stroke-width:1.52686"
       id="rect38"
       width="1920"
       height="1080"
       x="0"
       y="0" />
    <ellipse
       style="opacity:0.257116;fill:#070c0f;stroke:none;stroke-width:24.571;stroke-dasharray:none;filter:url(#filter66)"
       id="path66"
       cx="1328.0571"
       cy="604.68848"
       rx="98.630135"
       ry="18.264839"
       transform="matrix(1,0,0,0.71643106,0,148.7768)" />
    <g
       id="g1"
       clip-path="url(#clipPath3)">
      <rect
         style="opacity:0.25;fill:none;stroke:#fbeb83;stroke-width:9.84851;stroke-dasharray:none"
         id="rect2"
         width="728.87042"
         height="728.87042"
         x="846.19812"
         y="-820.94666"
         ry="91.108803"
         transform="rotate(45)" />
      <rect
         style="opacity:0.25;fill:none;stroke:#c1ebf7;stroke-width:9.84851;stroke-dasharray:none"
         id="rect1"
         width="728.87042"
         height="728.87042"
         x="-128.16112"
         y="153.41188"
         ry="91.108803"
         transform="rotate(45)" />
      <g
         id="g66">
        <rect
           style="opacity:0.25;fill:none;stroke:#b97ace;stroke-width:9.84851;stroke-dasharray:none"
           id="rect5"
           width="728.87042"
           height="728.87042"
           x="-199.05835"
           y="-891.84424"
           ry="91.108803"
           transform="rotate(45)" />
        <rect
           style="opacity:0.25;fill:none;stroke:#6acc0a;stroke-width:9.84851;stroke-dasharray:none"
           id="rect6"
           width="728.87042"
           height="728.87042"
           x="894.78229"
           y="201.99646"
           ry="91.108803"
           transform="rotate(45)" />
      </g>
      <rect
         style="opacity:0.35;fill:none;stroke:#b97ace;stroke-width:9.84851;stroke-dasharray:none"
         id="rect47"
         width="728.87042"
         height="728.87042"
         x="1064.4366"
         y="-1039.1852"
         ry="91.108803"
         transform="rotate(45)" />
    </g>
    <path
       inkscape:connector-curvature="0"
       style="fill:#f1f3f5;fill-opacity:1;fill-rule:evenodd;stroke:none;stroke-width:0.00474517pt;stroke-linecap:butt;stroke-linejoin:miter;stroke-opacity:1"
       d="m 1193.8419,458.8092 c -1.2187,0.6674 9.7532,7.8207 30.2541,16.2608 20.5023,8.4402 48.824,29.8321 46.6032,33.2849 -6.659,9.3793 -10.5868,20.5972 -7.876,39.8114 0.4888,3.3821 -10.0232,9.2549 -9.2586,14.3581 0.6392,3.8831 11.7495,-3.8495 12.9644,-2.3229 0.7433,2.7401 -5.944,16.6082 -3.241,17.5992 1.9766,0.5875 19.3551,-16.4905 20.3646,-16.2054 28.6587,8.6639 65.9473,2.1217 66.6694,1.8473 -0.068,-0.1506 26.8322,12.6463 29.1698,11.1171 5.8973,-6.3861 -11.1761,-15.3867 -8.3294,-18.9821 1.2481,-1.8822 20.7954,7.0669 21.7586,4.6239 1.4014,-4.2295 -9.0767,-13.1101 -10.6526,-15.741 -1.3709,-2.4257 -1.6683,-6.343 1.8474,-8.7941 3.5164,-2.451 39.4716,-16.2034 37.964,-26.8469 -2.607,-19.3394 -45.5996,-20.5953 -46.2938,-22.2231 -0.3263,-0.7646 1.892,-27.6551 -10.6522,-22.6877 -7.7238,2.8746 -1.4177,20.0078 -0.9182,22.2231 0.4609,2.0394 -3.4364,1.8243 -4.1702,0.9292 -1.6386,-2.0008 -7.0484,-19.8592 -13.4292,-16.6701 -8.9489,4.9341 -0.5267,20.3298 -2.3118,20.8293 -3.3157,1.853 -3.1277,6.379 -5.7854,10.0662 -4.3826,6.2809 -37.175,-2.9419 -47.7759,-3.584 -7.7606,-0.4582 -15.1838,5.9094 -15.8847,5.0995 -9.4498,-9.4632 -29.0006,-25.9419 -50.4194,-31.4154 -12.0115,-3.2597 -29.8802,-12.6972 -30.5971,-12.5773 z m 187.4198,36.1831 c 2.0495,0 3.7058,1.8923 3.7058,4.2256 0,2.3333 -1.6563,4.2256 -3.7058,4.2256 -2.0495,0 -3.7168,-1.8923 -3.7168,-4.2256 0,-2.3333 1.6673,-4.2256 3.7168,-4.2256 z m -8.3294,2.5663 c 1.5769,6.8084 4.0389,8.9781 11.4267,8.7609 -9.4034,8.6227 -15.118,-6.1513 -11.4267,-8.7609 z m 20.3313,17.7984 c 0.3848,0.014 0.6811,0.1023 0.874,0.2876 3.7044,1.3428 -15.9201,8.4091 -16.0507,7.4114 -0.2039,-0.7122 11.4575,-7.84 15.1767,-7.699 z m 1.9912,4.5243 c 0.2028,-0.016 0.3812,0.011 0.5309,0.088 3.497,3.4741 -11.0706,11.1773 -10.9067,10.9069 -1.1741,-0.7093 7.3344,-10.7594 10.3758,-10.9954 z"
       id="path47" />
  </g>

<metadata>
<rdf:RDF>
<cc:Work rdf:about="">
<dc:format>image/svg+xml</dc:format>
<dc:type rdf:resource="http://purl.org/dc/dcmitype/StillImage"/>
<dc:creator>
<cc:Agent>
<dc:title>kaz sb</dc:title>
</cc:Agent>
</dc:creator>
<cc:license rdf:resource="http://creativecommons.org/licenses/by-sa/4.0/"/>
</cc:Work>
<cc:License rdf:about="http://creativecommons.org/licenses/by-sa/4.0/">
<cc:permits rdf:resource="http://creativecommons.org/ns#Reproduction"/>
<cc:permits rdf:resource="http://creativecommons.org/ns#Distribution"/>
<cc:requires rdf:resource="http://creativecommons.org/ns#Notice"/>
<cc:requires rdf:resource="http://creativecommons.org/ns#Attribution"/>
<cc:permits rdf:resource="http://creativecommons.org/ns#DerivativeWorks"/>
<cc:requires rdf:resource="http://creativecommons.org/ns#ShareAlike"/>
</cc:License>
</rdf:RDF>
</metadata>

</svg>
