<?xml version="1.0" encoding="UTF-8"?>
<svg
  xmlns="http://www.w3.org/2000/svg"
  xmlns:xlink="http://www.w3.org/1999/xlink"
  xmlns:dc="http://purl.org/dc/elements/1.1/"
  xmlns:rdf="http://www.w3.org/1999/02/22-rdf-syntax-ns#"
  xmlns:cc="http://creativecommons.org/ns#"
  viewBox="0 0 1920 1080">

  <defs>
    <style>
      .uuid-2bb4ad5f-5116-42b2-bd86-72af4195a291 {
        fill: #232f36;
      }

      .uuid-abe4e6dd-f45c-4e48-896b-e4ebc3baf1ea {
        stroke: #131b20;
      }

      .uuid-abe4e6dd-f45c-4e48-896b-e4ebc3baf1ea, .uuid-e6dd7b54-2b59-4f85-b97a-a9d188d93697, .uuid-1f577121-56cf-4359-becd-819f9ad4aa5e, .uuid-476a5b4d-c1e7-496f-81af-c66be8796af8, .uuid-e15fb68a-d361-4fd2-aee4-d1232dcaa8dc, .uuid-76232521-f594-4cfa-a36a-c40f6392cd34, .uuid-d4101c87-824a-44c6-8300-bba1c1e9d5b3, .uuid-abcadcfa-a1d3-4f6d-8bee-bac83b13aefc, .uuid-bb89eced-cf13-4b98-a3a0-651c53261481, .uuid-abfdb11f-fe7c-4242-8c82-1390cd92e662, .uuid-6570fc48-1997-4695-a88c-60f2d2ef7905, .uuid-b6079382-acda-4bd1-ad44-fb387ef589ef, .uuid-f8a9b670-11f2-4a06-9321-b2576c40c15a, .uuid-58123835-65d2-4e1d-8efb-b61374ca184f, .uuid-46c85652-b044-4f72-b843-c0e620b40e8b, .uuid-21fbf5a5-0ada-4ca4-9d24-cb68a840ffe2, .uuid-a465f8c3-1eed-460e-8136-78d90839f709, .uuid-4c3b0832-cd85-4914-82ee-b067b61aa48f, .uuid-0068bc5c-1430-4fc6-9554-06ebb37afce2 {
        fill: none;
      }

      .uuid-abe4e6dd-f45c-4e48-896b-e4ebc3baf1ea, .uuid-e6dd7b54-2b59-4f85-b97a-a9d188d93697, .uuid-476a5b4d-c1e7-496f-81af-c66be8796af8, .uuid-e15fb68a-d361-4fd2-aee4-d1232dcaa8dc, .uuid-76232521-f594-4cfa-a36a-c40f6392cd34, .uuid-d4101c87-824a-44c6-8300-bba1c1e9d5b3, .uuid-abcadcfa-a1d3-4f6d-8bee-bac83b13aefc, .uuid-bb89eced-cf13-4b98-a3a0-651c53261481, .uuid-abfdb11f-fe7c-4242-8c82-1390cd92e662, .uuid-6570fc48-1997-4695-a88c-60f2d2ef7905, .uuid-b6079382-acda-4bd1-ad44-fb387ef589ef, .uuid-f8a9b670-11f2-4a06-9321-b2576c40c15a, .uuid-58123835-65d2-4e1d-8efb-b61374ca184f, .uuid-46c85652-b044-4f72-b843-c0e620b40e8b, .uuid-21fbf5a5-0ada-4ca4-9d24-cb68a840ffe2, .uuid-a465f8c3-1eed-460e-8136-78d90839f709, .uuid-4c3b0832-cd85-4914-82ee-b067b61aa48f {
        stroke-width: 2px;
      }

      .uuid-abe4e6dd-f45c-4e48-896b-e4ebc3baf1ea, .uuid-e6dd7b54-2b59-4f85-b97a-a9d188d93697, .uuid-476a5b4d-c1e7-496f-81af-c66be8796af8, .uuid-e15fb68a-d361-4fd2-aee4-d1232dcaa8dc, .uuid-76232521-f594-4cfa-a36a-c40f6392cd34, .uuid-d4101c87-824a-44c6-8300-bba1c1e9d5b3, .uuid-abcadcfa-a1d3-4f6d-8bee-bac83b13aefc, .uuid-bb89eced-cf13-4b98-a3a0-651c53261481, .uuid-abfdb11f-fe7c-4242-8c82-1390cd92e662, .uuid-6570fc48-1997-4695-a88c-60f2d2ef7905, .uuid-b6079382-acda-4bd1-ad44-fb387ef589ef, .uuid-f8a9b670-11f2-4a06-9321-b2576c40c15a, .uuid-58123835-65d2-4e1d-8efb-b61374ca184f, .uuid-46c85652-b044-4f72-b843-c0e620b40e8b, .uuid-21fbf5a5-0ada-4ca4-9d24-cb68a840ffe2, .uuid-a465f8c3-1eed-460e-8136-78d90839f709, .uuid-4c3b0832-cd85-4914-82ee-b067b61aa48f, .uuid-0068bc5c-1430-4fc6-9554-06ebb37afce2 {
        stroke-miterlimit: 10;
      }

      .uuid-e6dd7b54-2b59-4f85-b97a-a9d188d93697 {
        stroke: #384a54;
      }

      .uuid-c056a3aa-ede6-4c21-88b5-a9b072802378 {
        fill: #10181c;
      }

      .uuid-8d532b72-d564-4535-b51b-3faea32237b2 {
        fill: #3f525e;
      }

      .uuid-6e642bd4-9e09-48f5-adf4-a8f1d6f18bfd {
        clip-path: url(#uuid-22d49902-983a-4238-8dd2-a1dd4372daec);
      }

      .uuid-476a5b4d-c1e7-496f-81af-c66be8796af8 {
        stroke: #0b1115;
      }

      .uuid-e15fb68a-d361-4fd2-aee4-d1232dcaa8dc {
        stroke: #172126;
      }

      .uuid-76232521-f594-4cfa-a36a-c40f6392cd34 {
        stroke: #1b262c;
      }

      .uuid-d4101c87-824a-44c6-8300-bba1c1e9d5b3 {
        stroke: #445965;
      }

      .uuid-abcadcfa-a1d3-4f6d-8bee-bac83b13aefc {
        stroke: #34444e;
      }

      .uuid-bb89eced-cf13-4b98-a3a0-651c53261481 {
        stroke: #2c3a43;
      }

      .uuid-f63b650d-87b1-4b2e-bd07-90223deb682d {
        fill: #bcc5ca;
        fill-rule: evenodd;
      }

      .uuid-abfdb11f-fe7c-4242-8c82-1390cd92e662 {
        stroke: #3c4f5a;
      }

      .uuid-5a13e696-4119-42a7-a4db-08cccb44b19c {
        fill: #070c0f;
      }

      .uuid-229ad428-641c-4583-b9cf-1a0f6493e6a7 {
        clip-path: url(#uuid-17fb6de6-cd7c-4f08-8c69-cc6489840775);
      }

      .uuid-c4405d1c-8c52-435d-aadf-51c7e0e05398 {
        fill: #485e6b;
      }

      .uuid-6570fc48-1997-4695-a88c-60f2d2ef7905 {
        stroke: #28353d;
      }

      .uuid-b6079382-acda-4bd1-ad44-fb387ef589ef {
        stroke: #233037;
      }

      .uuid-f8a9b670-11f2-4a06-9321-b2576c40c15a {
        stroke: #0f161a;
      }

      .uuid-58123835-65d2-4e1d-8efb-b61374ca184f {
        stroke: #303f49;
      }

      .uuid-46c85652-b044-4f72-b843-c0e620b40e8b {
        stroke: #485e6b;
      }

      .uuid-21fbf5a5-0ada-4ca4-9d24-cb68a840ffe2 {
        stroke: #1f2b32;
      }

      .uuid-af8fdb35-e1cf-43f1-b52e-80d4d6771d22 {
        fill: #354751;
      }

      .uuid-a465f8c3-1eed-460e-8136-78d90839f709 {
        stroke: #405460;
      }

      .uuid-4c3b0832-cd85-4914-82ee-b067b61aa48f {
        stroke: #070c0f;
      }

      .uuid-0068bc5c-1430-4fc6-9554-06ebb37afce2 {
        stroke: #bcc5ca;
        stroke-width: 4px;
      }

      .uuid-65bec9aa-27f2-41f2-bfb8-6a21477230cf {
        fill: #2c3b44;
      }

      .uuid-3ad58a47-67e0-4ef2-9021-8c7d6efc98dc {
        fill: #263742;
      }

      .uuid-720b983c-1cf8-49cb-96e3-2f3b9b916825 {
        fill: #1a2329;
      }
    </style>
    <clipPath id="uuid-17fb6de6-cd7c-4f08-8c69-cc6489840775">
      <rect class="uuid-1f577121-56cf-4359-becd-819f9ad4aa5e" width="1920" height="1080"/>
    </clipPath>
    <clipPath id="uuid-22d49902-983a-4238-8dd2-a1dd4372daec">
      <rect class="uuid-1f577121-56cf-4359-becd-819f9ad4aa5e" x="0" y="0" width="1920" height="1080"/>
    </clipPath>
  </defs>
  <g id="uuid-9a457faf-5bf3-4ce0-871d-e7d20286728b" data-name="Layer 1">
    <rect class="uuid-3ad58a47-67e0-4ef2-9021-8c7d6efc98dc" width="1920" height="1080"/>
  </g>
  <g id="uuid-1407bcc5-49dc-4b7b-9076-ca1e6e28aa72" data-name="Layer 6">
    <g class="uuid-229ad428-641c-4583-b9cf-1a0f6493e6a7">
      <g>
        <path class="uuid-4c3b0832-cd85-4914-82ee-b067b61aa48f" d="M-77.903,952.774S49.645,372.194,259.839,384s166.242,300.867,528.387,406.452c426.194,124.258,668.928-481.176,1107.871-425.032,199.742,25.548,296.129,318.194,296.129,318.194"/>
        <path class="uuid-476a5b4d-c1e7-496f-81af-c66be8796af8" d="M-82.839,932.524c2.657-9.104,123.928-556.877,328.146-542.85,200.37,13.763,165.174,283.136,509.761,392.453,271.132,86.014,477.651-131.604,693.289-277.919,126.029-85.193,263.485-151.125,428.597-125.819,194.224,29.768,292.75,309.256,300.972,320.974"/>
        <path class="uuid-f8a9b670-11f2-4a06-9321-b2576c40c15a" d="M-87.774,912.274c5.315-18.208,120.282-533.211,318.55-516.926,190.533,15.65,164.031,266.154,491.135,378.453,272.824,93.664,489.537-128.451,701.947-267.875,124.913-81.386,264.961-144.697,433.955-114.567,188.688,33.641,289.371,300.318,305.816,323.754"/>
        <path class="uuid-abe4e6dd-f45c-4e48-896b-e4ebc3baf1ea" d="M-92.71,892.024c7.972-27.312,116.612-509.587,308.954-491.002,180.682,17.459,162.787,249.898,472.509,364.454,274.629,101.576,501.094-125.816,710.605-257.832,123.605-77.885,266.393-138.43,439.312-103.316,183.151,37.191,285.992,291.381,310.659,326.534"/>
        <path class="uuid-e15fb68a-d361-4fd2-aee4-d1232dcaa8dc" d="M-97.645,871.774c10.629-36.415,112.917-486.015,299.358-465.077,170.819,19.183,161.417,234.343,453.884,350.455,276.509,109.777,512.907-122.803,719.264-247.788,122.445-74.163,267.8-132.334,444.669-92.065,177.625,40.442,282.613,282.443,315.503,329.314"/>
        <path class="uuid-76232521-f594-4cfa-a36a-c40f6392cd34" d="M-102.581,851.524c13.287-45.519,109.198-462.503,289.763-439.153,160.944,20.812,159.899,219.457,435.258,336.456,278.425,118.302,524.739-119.769,727.922-237.745,121.296-70.43,269.202-126.423,450.026-80.813,172.124,43.415,279.234,273.505,320.346,332.094"/>
        <path class="uuid-21fbf5a5-0ada-4ca4-9d24-cb68a840ffe2" d="M-107.516,831.274c15.944-54.623,105.456-439.063,280.167-413.229,151.062,22.337,158.212,205.207,416.632,322.457,280.327,127.189,536.59-116.713,736.58-227.701,120.158-66.684,270.618-120.708,455.384-69.562,166.658,46.134,275.855,264.568,325.19,334.874"/>
        <path class="uuid-b6079382-acda-4bd1-ad44-fb387ef589ef" d="M-112.452,811.024c18.601-63.727,101.696-415.711,270.571-387.305,141.175,23.747,156.335,191.557,398.006,308.458,282.16,136.486,548.46-113.633,745.238-217.658,119.031-62.925,272.069-115.204,460.741-58.31,161.238,48.621,272.476,255.63,330.033,337.654"/>
        <path class="uuid-6570fc48-1997-4695-a88c-60f2d2ef7905" d="M-117.387,790.774c21.259-72.831,97.923-392.465,260.975-361.381,131.287,25.028,154.25,178.469,379.38,294.459,283.856,146.247,560.348-110.525,753.896-207.615,117.915-59.15,273.575-109.922,466.098-47.059,155.871,50.895,269.096,246.692,334.877,340.434"/>
        <path class="uuid-bb89eced-cf13-4b98-a3a0-651c53261481" d="M-122.323,770.524c23.916-81.935,94.145-369.349,251.379-335.457,121.407,26.17,151.936,165.899,360.754,280.46,285.333,156.538,572.253-107.387,762.554-197.571,116.809-55.356,275.159-104.877,471.455-35.808,150.568,52.979,265.717,237.755,339.72,343.214"/>
        <path class="uuid-58123835-65d2-4e1d-8efb-b61374ca184f" d="M-127.258,750.274c26.573-91.039,90.378-346.395,241.783-309.532,111.543,27.157,149.374,153.806,342.128,266.461,286.492,167.44,584.176-104.216,771.212-187.528,115.714-51.543,276.843-100.082,476.813-24.556,145.334,54.891,262.338,228.817,344.564,345.994"/>
        <path class="uuid-abcadcfa-a1d3-4f6d-8bee-bac83b13aefc" d="M-132.194,730.024c29.231-100.142,86.643-323.642,232.187-283.608,101.708,27.976,146.54,142.139,323.502,252.462,287.205,179.05,596.113-101.008,779.871-177.484,114.628-47.706,278.651-95.552,482.17-13.305,140.178,56.65,258.959,219.88,349.407,348.774"/>
        <path class="uuid-e6dd7b54-2b59-4f85-b97a-a9d188d93697" d="M-137.129,709.774c31.888-109.246,82.976-301.144,222.591-257.684,91.922,28.613,143.409,130.847,304.876,238.462,287.31,191.488,608.064-97.76,788.529-167.441,113.55-43.844,280.61-91.301,487.527-2.053,135.107,58.274,255.58,210.942,354.25,351.555"/>
        <path class="uuid-abfdb11f-fe7c-4242-8c82-1390cd92e662" d="M-142.065,689.524c34.545-118.35,79.428-278.97,212.995-231.76,82.208,29.057,139.95,119.87,286.251,224.463,286.599,204.896,620.026-94.468,797.187-157.398,112.48-39.954,282.745-87.342,492.885,9.198,130.126,59.781,252.201,202.004,359.094,354.335"/>
        <path class="uuid-a465f8c3-1eed-460e-8136-78d90839f709" d="M-147,669.274c37.203-127.454,76.085-257.217,203.4-205.836,72.602,29.3,136.124,109.138,267.625,210.464,284.796,219.447,631.994-91.13,805.845-147.354,111.415-36.032,285.086-83.688,498.242,20.45,125.244,61.188,248.822,193.067,363.937,357.115"/>
        <path class="uuid-d4101c87-824a-44c6-8300-bba1c1e9d5b3" d="M-151.935,649.024c39.86-136.558,73.078-236.006,193.804-179.911,63.157,29.346,131.884,98.567,248.999,196.465,281.536,235.34,644.05-87.453,814.503-137.311,110.407-31.889,287.662-80.354,503.599,31.701,120.467,62.513,245.443,184.129,368.781,359.895"/>
        <path class="uuid-46c85652-b044-4f72-b843-c0e620b40e8b" d="M-156.871,628.774c62.71-214.839,94.065-264.734,414.581,28.479,276.335,252.795,655.935-84.3,823.161-127.267,167.226-42.968,502.839-135.534,882.581,405.627"/>
      </g>
    </g>
  </g>
  <g id="uuid-667a5cec-e71a-4f53-b553-25cd752e4d8a" data-name="Layer 5">
    <path class="uuid-0068bc5c-1430-4fc6-9554-06ebb37afce2" d="M1046.633,507.016l13.22,16.185,13.303-15.685,10.462,10.296-14.701,15.723,15.434,16.444-10.536,10.713-15.239-16.896-14.754,17.137-10.22-9.826,16.158-16.442-.092-.557-15.119-15.847,12.084-11.245ZM1176.038,509.675v51.034h29.266v-12.577h-14.028v-7.256h11.852v-11.852h-11.852v-7.498h13.787v-11.852h-29.024ZM1168.056,546.439c-8.12,1.517-25.209,1.83-23.942-10.518.405-3.951,4.529-7.564,7.817-9.356,4.362-2.378,9.301-3.377,14.09-4.54l-2.565-13.554c-.349-.335-6.592,1.681-7.544,1.999-15.541,5.195-33.778,16.303-26.801,35.611,5.661,15.666,25.166,15.682,38.945,13.419v-13.061ZM1090.9,510.643v50.309h15.48v-18.382h13.061v-11.368h-13.061v-8.224h13.787v-12.335h-29.266Z"/>
  </g>
  <g id="uuid-71836482-4014-4f17-8874-fa9fa32fb83b" data-name="Layer 4">
    <g class="uuid-6e642bd4-9e09-48f5-adf4-a8f1d6f18bfd">
      <g>
        <g>
          <path class="uuid-c4405d1c-8c52-435d-aadf-51c7e0e05398" d="M2169.071-254.579l-449.35-224.675c-15.05-7.525-31.016,8.441-23.491,23.491L1920.905-6.413c1.694,3.388,4.442,6.136,7.83,7.83l449.35,224.675c15.05,7.525,31.016-8.441,23.491-23.491l-224.675-449.35c-1.694-3.388-4.442-6.136-7.83-7.83Z"/>
          <path class="uuid-8d532b72-d564-4535-b51b-3faea32237b2" d="M1610.295-353.664c-.284.142,3.453,8.309,3.311,8.593l158.604,392.605c-.461.922,11.286,24.199,12.129,24.406,1.764,2.981,4.466,5.309,7.711,6.591l414.441,169.522c.284-.142,8.93,3.835,9.072,3.551,12.9,6.45,28.065-10.195,21.615-23.095l-175.588-419.139c-1.452-2.904-3.429-6.016-6.333-7.468.631-1.263-34.294-19.395-35.557-18.764l-385.983-158.58c-12.9-6.45-29.872,8.879-23.422,21.778Z"/>
          <path class="uuid-af8fdb35-e1cf-43f1-b52e-80d4d6771d22" d="M1524.387-251.584c-.569.284,2.277,7.359,1.993,7.927l110.179,371.152c-.922,1.843,9.555,22.364,11.24,22.778,1.834,2.574,4.49,4.483,7.592,5.352l389.348,119.278c.569-.284,8.042,2.761,8.326,2.192,10.75,5.375,25.114-11.949,19.739-22.699l-126.5-388.928c-1.21-2.42-2.416-5.896-4.837-7.106,1.263-2.525-29.404-19.198-31.93-17.936l-361.799-112.077c-10.75-5.375-28.728,9.316-23.353,20.066Z"/>
          <path class="uuid-65bec9aa-27f2-41f2-bfb8-6a21477230cf" d="M1438.506-149.524c-.853.426,1.101,6.409.675,7.261l61.755,349.699c-1.382,2.765,7.823,20.529,10.352,21.151,1.904,2.166,4.514,3.656,7.473,4.113l364.256,69.034c.853-.426,7.154,1.687,7.581.834,8.6,4.3,22.163-13.703,17.863-22.303l-77.413-358.717c-.968-1.936-1.403-5.776-3.34-6.744,1.894-3.788-24.515-19.001-28.303-17.108l-337.614-65.574c-8.6-4.3-27.584,9.754-23.285,18.354Z"/>
          <path class="uuid-2bb4ad5f-5116-42b2-bd86-72af4195a291" d="M1352.794-47.557c-1.137.569-.075,5.459-.644,6.596l13.33,328.246c-1.843,3.686,6.092,18.694,9.463,19.523,1.974,1.759,4.538,2.83,7.354,2.874l339.164,18.789c1.137-.569,6.267.613,6.835-.524,6.45,3.225,19.212-15.457,15.987-21.907l-28.326-328.506c-.726-1.452-.391-5.656-1.843-6.382,2.525-5.05-19.625-18.805-24.676-16.279l-313.43-19.071c-6.45-3.225-26.441,10.192-23.216,16.642Z"/>
          <path class="uuid-720b983c-1cf8-49cb-96e3-2f3b9b916825" d="M1275.198,51.778c-1.421.711-1.251,4.509-1.962,5.93l-35.094,306.793c-2.304,4.608,4.6,16.154,8.575,17.895,2.244.983,4.562,2.003,7.236,1.634l314.072-31.455c1.421-.711,5.379-.461,6.09-1.882,4.3,2.15,16.261-17.211,14.111-21.511l20.761-298.295c-.484-.968.622-5.536-.346-6.02,3.157-6.313-14.736-18.608-21.049-15.451l-289.246,27.432c-4.3-2.15-25.297,10.629-23.147,14.929Z"/>
          <path class="uuid-c056a3aa-ede6-4c21-88b5-a9b072802378" d="M1188.923,151.249c-1.706.853-2.427,3.559-3.28,5.264l-83.519,285.34c-2.765,5.529,2.761,14.576,7.686,16.267,2.19.752,4.586,1.176,7.117.395l288.98-81.699c1.706-.853,4.491-1.535,5.344-3.24,2.15,1.075,13.311-18.965,12.236-21.115l69.849-268.083c-.242-.484,1.635-5.416,1.151-5.658,3.788-7.576-9.846-18.411-17.422-14.623l-265.062,73.936c-2.15-1.075-24.153,11.067-23.078,13.217Z"/>
          <path class="uuid-5a13e696-4119-42a7-a4db-08cccb44b19c" d="M1248.322,396.312l131.944-263.887c4.419-8.838-4.957-18.214-13.795-13.795l-263.887,131.944c-1.99.995-3.603,2.608-4.598,4.598l-131.944,263.887c-4.419,8.838,4.957,18.214,13.795,13.795l263.887-131.944c1.99-.995,3.603-2.608,4.598-4.598Z"/>
        </g>
        <g>
          <path class="uuid-c4405d1c-8c52-435d-aadf-51c7e0e05398" d="M-251.37,1334.579l449.35,224.675c15.05,7.525,31.016-8.441,23.491-23.491L-3.204,1086.413c-1.694-3.388-4.442-6.136-7.83-7.83l-449.35-224.675c-15.05-7.525-31.016,8.441-23.491,23.491l224.675,449.35c1.694,3.388,4.442,6.136,7.83,7.83Z"/>
          <path class="uuid-8d532b72-d564-4535-b51b-3faea32237b2" d="M-319.866,850.415l174.14,422.035c1.452,2.904,3.397,6.08,6.301,7.533-.631,1.263,31.612,18.054,32.874,17.423l391.952,158.278c3.408,1.42,6.779,1.446,9.87.784,9.063-1.942,17.064-14.307,12.176-24.083l-158.534-387.45c.631-1.263-17.158-35.501-18.42-34.869-1.452-2.904-4.582-4.872-7.487-6.324l-419.9-175.208c-9.411-4.706-21.125,2.475-23.545,11.001-.956,3.367-1.03,7.109.572,10.882Z"/>
          <path class="uuid-af8fdb35-e1cf-43f1-b52e-80d4d6771d22" d="M-155.822,823.382l123.605,394.719c1.21,2.42,2.352,6.025,4.772,7.235-1.263,2.525,27.169,18.081,29.694,16.818l370.608,109.908c3.172,1.017,6.197.628,8.991-.113,7.465-1.982,15.682-14.847,11.609-22.994l-111.583-363.931c1.263-2.525-15.124-32.62-17.649-31.357-1.21-2.42-4.723-3.608-7.143-4.818l-390.449-125.74c-7.843-3.921-19.854,3.424-22.165,10.439-.997,3.027-1.459,6.359-.29,9.834Z"/>
          <path class="uuid-65bec9aa-27f2-41f2-bfb8-6a21477230cf" d="M8.273,796.276l73.07,367.403c.968,1.936,1.307,5.969,3.243,6.937-1.894,3.788,22.727,18.107,26.515,16.213l349.264,61.537c2.935.615,5.592-.182,8.113-1.01,5.871-1.928,14.301-15.388,11.042-21.905l-64.633-340.412c1.894-3.788-13.091-29.739-16.878-27.845-.968-1.936-4.863-2.344-6.8-3.312L30.209,777.611c-6.274-3.137-18.657,4.366-20.785,9.878-1.045,2.706-1.888,5.609-1.152,8.787Z"/>
          <path class="uuid-2bb4ad5f-5116-42b2-bd86-72af4195a291" d="M172.433,769.096l22.535,340.088c.726,1.452.262,5.914,1.714,6.64-2.525,5.05,18.284,18.134,23.335,15.609l327.92,13.167c2.699.212,5.206-.519,7.234-1.907,4.567-.786,12.919-15.929,10.475-20.817l-17.683-316.893c2.525-5.05-11.057-26.858-16.108-24.332-.726-1.452-5.004-1.08-6.456-1.806l-331.548-26.805c-4.706-2.353-18.343,5.014-19.405,9.317-1.531,2.163-2.317,4.859-2.013,7.74Z"/>
          <path class="uuid-720b983c-1cf8-49cb-96e3-2f3b9b916825" d="M335.955,735.278l-28,312.772c.484.968-.783,5.858.185,6.342-3.157,6.313,13.842,18.161,20.155,15.004l306.576-35.203c2.463-.19,4.672-1.216,6.356-2.804,3.045-.524,11.538-16.469,9.909-19.728l29.268-293.374c3.157-6.313-9.024-23.977-15.337-20.82-.484-.968-5.144.184-6.112-.3l-302.098,22.663c-3.137-1.569-17.317,5.887-18.025,8.755-1.684,1.774-2.746,4.109-2.875,6.693Z"/>
          <path class="uuid-c056a3aa-ede6-4c21-88b5-a9b072802378" d="M502.642,709.446l-78.535,285.456c.242.484-1.828,5.802-1.344,6.044-3.788,7.576,9.399,18.188,16.975,14.4l285.231-83.573c2.226-.592,4.138-1.912,5.477-3.701,1.522-.262,10.157-17.01,9.342-18.639l76.218-269.856c3.788-7.576-6.99-21.095-14.566-17.308-.242-.484-5.285,1.449-5.769,1.207l-272.647,72.131c-1.569-.784-16.291,6.76-16.645,8.194-1.837,1.384-3.175,3.359-3.737,5.646Z"/>
          <path class="uuid-5a13e696-4119-42a7-a4db-08cccb44b19c" d="M669.38,683.688l-131.944,263.887c-4.419,8.838,4.957,18.214,13.795,13.795l263.887-131.944c1.99-.995,3.603-2.608,4.598-4.598l131.944-263.887c4.419-8.838-4.957-18.214-13.795-13.795l-263.887,131.944c-1.99.995-3.603,2.608-4.598,4.598Z"/>
        </g>
        <g>
          <path class="uuid-c4405d1c-8c52-435d-aadf-51c7e0e05398" d="M-254.611-245.2l-224.675,449.35c-7.525,15.05,8.441,31.016,23.491,23.491L-6.445,2.966C-3.057,1.272-.309-1.476,1.385-4.864l224.675-449.35c7.525-15.05-8.441-31.016-23.491-23.491L-246.781-253.03c-3.388,1.694-6.136,4.442-7.83,7.83Z"/>
          <path class="uuid-8d532b72-d564-4535-b51b-3faea32237b2" d="M-138.511-192.319c-1.263-.631-19.054,33.611-18.422,34.874l-158.533,387.444c-4.886,9.773,3.109,22.137,12.168,24.083,3.093.664,6.467.639,9.878-.782L129.436,79.57c3.245-1.282,5.947-3.61,7.711-6.591.843-.207,12.579-23.464,12.119-24.385l158.619-392.634c-.142-.284,3.591-8.443,3.307-8.585,6.45-12.9-10.195-28.065-23.095-21.615L-131.043-198.652c-2.904,1.452-6.016,3.429-7.468,6.333Z"/>
          <path class="uuid-af8fdb35-e1cf-43f1-b52e-80d4d6771d22" d="M-22.423-139.495c-2.525-1.263-18.914,28.835-17.651,31.361l-111.583,363.924c-4.072,8.144,4.142,21.011,11.603,22.996,2.796.744,5.824,1.133,8.998.115l396.361-122.784c3.102-.869,5.758-2.778,7.591-5.352,1.686-.414,12.154-20.918,11.232-22.761l110.192-371.176c-.284-.569,2.558-7.636,1.989-7.92,5.375-10.75-11.949-25.114-22.699-19.739L-15.317-144.331c-2.42,1.21-5.896,2.416-7.106,4.837Z"/>
          <path class="uuid-65bec9aa-27f2-41f2-bfb8-6a21477230cf" d="M93.653-86.752c-3.788-1.894-18.774,24.06-16.88,27.848L12.139,281.5c-3.258,6.515,5.171,19.979,11.039,21.91,2.522.83,5.181,1.627,8.118,1.011l369.866-71.839c2.959-.457,5.569-1.946,7.472-4.112,2.529-.621,11.729-18.372,10.346-21.137l61.765-349.718c-.426-.853,1.525-6.83.672-7.256,4.3-8.6-13.703-22.163-22.303-17.863L100.397-90.091c-1.936.968-5.776,1.403-6.744,3.34Z"/>
          <path class="uuid-2bb4ad5f-5116-42b2-bd86-72af4195a291" d="M209.589-34.099c-5.05-2.525-18.634,19.284-16.109,24.334l-17.685,316.884c-2.443,4.886,5.91,20.034,10.475,20.823,2.029,1.39,4.538,2.121,7.238,1.908l343.371-20.893c2.816-.044,5.379-1.115,7.353-2.873,3.372-.828,11.303-15.826,9.46-19.513l13.338-328.26c-.569-1.137.491-6.023-.646-6.592,3.225-6.45-15.457-19.212-21.907-15.987l-328.506,28.326c-1.452.726-5.656.391-6.382,1.843Z"/>
          <path class="uuid-720b983c-1cf8-49cb-96e3-2f3b9b916825" d="M321.901,13.727c-6.313-3.157-18.494,14.508-15.338,20.821l29.264,293.364c-1.629,3.258,6.867,19.21,9.91,19.736,1.684,1.59,3.895,2.615,6.358,2.805l316.877,30.053c2.673.368,4.989-.652,7.233-1.634,3.976-1.74,10.878-13.28,8.573-17.888l-35.09-306.803c-.711-1.421-.542-5.216-1.963-5.927,2.15-4.3-17.211-16.261-21.511-14.111L327.921,13.381c-.968.484-5.536-.622-6.02.346Z"/>
          <path class="uuid-c056a3aa-ede6-4c21-88b5-a9b072802378" d="M436.575,66.215c-7.576-3.788-18.354,9.733-14.566,17.308l76.213,269.844c-.814,1.629,7.824,18.386,9.346,18.649,1.34,1.79,3.252,3.109,5.478,3.702l290.382,80.998c2.529.781,4.925.356,7.114-.395,4.927-1.69,10.452-10.734,7.687-16.264l-83.517-285.345c-.853-1.706-1.575-4.41-3.281-5.263,1.075-2.15-18.965-13.311-21.115-12.236l-268.083-69.849c-.484.242-5.416-1.635-5.658-1.151Z"/>
          <path class="uuid-5a13e696-4119-42a7-a4db-08cccb44b19c" d="M815.118,250.573l-263.887-131.944c-8.838-4.419-18.214,4.957-13.795,13.795l131.944,263.887c.995,1.99,2.608,3.603,4.598,4.598l263.887,131.944c8.838,4.419,18.214-4.957,13.795-13.795l-131.944-263.887c-.995-1.99-2.608-3.603-4.598-4.598Z"/>
        </g>
        <g>
          <path class="uuid-c4405d1c-8c52-435d-aadf-51c7e0e05398" d="M2172.312,1325.2l224.675-449.35c7.525-15.05-8.441-31.016-23.491-23.491l-449.35,224.675c-3.388,1.694-6.136,4.442-7.83,7.83l-224.675,449.35c-7.525,15.05,8.441,31.016,23.491,23.491l449.35-224.675c3.388-1.694,6.136-4.442,7.83-7.83Z"/>
          <path class="uuid-8d532b72-d564-4535-b51b-3faea32237b2" d="M1789.245,1001.336c-3.238,1.285-5.932,3.611-7.691,6.586-.854.197-12.924,24.102-12.459,25.031l-162.262,399.921c-1.599,3.767-1.526,7.503-.576,10.866,2.413,8.535,14.129,15.724,23.546,11.015l419.904-175.205c2.904-1.452,6.033-3.42,7.485-6.325,1.263.631,18.054-31.612,17.423-32.874l158.278-391.952c1.562-3.692,1.512-7.352.625-10.66-2.319-8.645-14.166-15.998-23.658-11.252l-420.614,174.85Z"/>
          <path class="uuid-af8fdb35-e1cf-43f1-b52e-80d4d6771d22" d="M1654.344,925.638c-3.087.877-5.728,2.781-7.551,5.342-1.707.393-12.469,21.447-11.539,23.305l-113.228,377.249c-1.167,3.471-.706,6.798.287,9.821,2.305,7.022,14.315,14.374,22.163,10.45l390.457-125.736c2.42-1.21,5.93-2.399,7.14-4.82,2.525,1.263,18.081-27.169,16.818-29.694l109.908-370.608c1.136-3.409.692-6.672-.246-9.65-2.241-7.114-14.42-14.639-22.33-10.684l-391.878,125.025Z"/>
          <path class="uuid-65bec9aa-27f2-41f2-bfb8-6a21477230cf" d="M1519.442,849.939c-2.937.468-5.524,1.95-7.412,4.098-2.561.59-12.013,18.791-10.62,21.578l-64.194,354.576c-.735,3.175.108,6.073,1.149,8.777,2.125,5.518,14.502,13.024,20.78,9.885l361.011-76.266c1.936-.968,5.827-1.378,6.795-3.314,3.788,1.894,18.107-22.727,16.213-26.515l61.537-349.264c.71-3.125-.122-5.973-1.116-8.64-2.085-5.591-14.674-13.28-21.002-10.117l-363.142,75.201Z"/>
          <path class="uuid-2bb4ad5f-5116-42b2-bd86-72af4195a291" d="M1384.544,774.303c-2.787.059-5.32,1.12-7.272,2.854-3.415.786-11.558,16.136-9.7,19.852l-15.159,331.904c-.302,2.879.483,5.571,2.011,7.732,1.058,4.307,14.688,11.674,19.397,9.319l331.565-26.796c1.452-.726,5.724-.357,6.45-1.809,5.05,2.525,18.134-18.284,15.609-23.335l13.167-327.92c.283-2.841-.489-5.495-1.987-7.629-1.004-4.361-14.928-11.921-19.674-9.549l-334.406,25.376Z"/>
          <path class="uuid-720b983c-1cf8-49cb-96e3-2f3b9b916825" d="M1248.947,699.507c-2.636-.35-5.116.289-7.133,1.61-4.269.983-11.103,13.481-8.781,18.126l33.875,309.232c.13,2.582,1.191,4.915,2.874,6.688.705,2.871,14.875,10.324,18.014,8.754l302.118,22.673c.968-.484,5.621.665,6.105-.303,6.313,3.157,18.161-13.842,15.004-20.155l-35.203-306.576c-.143-2.557-1.196-4.864-2.857-6.619-.669-2.907-15.182-10.563-18.346-8.981l-305.67-24.449Z"/>
          <path class="uuid-c056a3aa-ede6-4c21-88b5-a9b072802378" d="M1114.378,623.271c-2.486-.759-4.837-.346-6.993.366-4.992,1.647-10.648,10.825-7.861,16.4l82.909,286.56c.563,2.286,1.9,4.259,3.736,5.643.353,1.436,15.061,8.974,16.631,8.189l272.672,72.143c.484-.242,5.518,1.686,5.76,1.202,7.576,3.788,18.188-9.399,14.4-16.975l-83.573-285.231c-.569-2.274-1.902-4.234-3.728-5.609-.335-1.454-15.435-9.204-17.017-8.413l-276.934-74.274Z"/>
          <path class="uuid-5a13e696-4119-42a7-a4db-08cccb44b19c" d="M1102.583,829.427l263.887,131.944c8.838,4.419,18.214-4.957,13.795-13.795l-131.944-263.887c-.995-1.99-2.608-3.603-4.598-4.598l-263.887-131.944c-8.838-4.419-18.214,4.957-13.795,13.795l131.944,263.887c.995,1.99,2.608,3.603,4.598,4.598Z"/>
        </g>
      </g>
    </g>
  </g>
  <g id="uuid-13c708da-c599-4af5-921e-40f39be14587" data-name="Layer 3">
    <g id="uuid-b1a8b313-8b3b-4fcc-b2db-cb6d61d85627" data-name="layer8">
      <g id="uuid-f7216de8-6793-442c-9cab-1a4ecce1e88f" data-name="layer10">
        <path id="uuid-53641579-fc1b-4ff5-94e0-c45c8731c323" data-name="path13" class="uuid-f63b650d-87b1-4b2e-bd07-90223deb682d" d="M1019.922,498.227c-.855-.707-7.56,9.871-6.077,10.969.891.667,6.459-10.592,6.077-10.969Z"/>
        <path id="uuid-71fcb525-e4bc-4723-ab10-fdff1aa771be" data-name="path18" class="uuid-f63b650d-87b1-4b2e-bd07-90223deb682d" d="M1012.214,496.745c-.423-.491-2.669,10.909-1.63,11.413.891.667,2.444-10.82,1.63-11.413Z"/>
        <path id="uuid-76a96b8f-b6d5-4075-974c-85e2b8c01c0b" data-name="path14" class="uuid-f63b650d-87b1-4b2e-bd07-90223deb682d" d="M854.589,484.258c-.878.481,7.026,5.634,21.794,11.714,14.769,6.08,35.171,21.49,33.571,23.977-4.797,6.756-7.626,14.837-5.674,28.679.352,2.436-7.22,6.667-6.67,10.343.461,2.797,8.464-2.773,9.339-1.673.535,1.974-4.282,11.964-2.335,12.678,1.424.423,13.943-11.879,14.67-11.674,20.645,6.241,47.506,1.528,48.026,1.331-.049-.108,19.329,9.11,21.013,8.008,4.248-4.6-8.051-11.084-6-13.674.899-1.356,14.98,5.091,15.674,3.331,1.01-3.047-6.538-9.444-7.674-11.339-.987-1.747-1.202-4.569,1.331-6.335,2.533-1.766,28.434-11.672,27.348-19.339-1.878-13.931-32.848-14.836-33.348-16.009-.235-.551,1.363-19.922-7.674-16.343-5.564,2.071-1.021,14.413-.661,16.009.332,1.469-2.475,1.314-3.004.669-1.18-1.441-5.077-14.306-9.674-12.008-6.447,3.554-.38,14.645-1.665,15.005-2.388,1.335-2.253,4.595-4.168,7.251-3.157,4.524-26.779-2.119-34.416-2.582-5.591-.33-10.938,4.257-11.443,3.673-6.807-6.817-20.891-18.687-36.32-22.63-8.653-2.348-21.525-9.147-22.041-9.06ZM989.599,510.323c1.476,0,2.669,1.363,2.669,3.044s-1.193,3.044-2.669,3.044-2.677-1.363-2.677-3.044,1.201-3.044,2.677-3.044ZM983.599,512.171c1.136,4.904,2.91,6.467,8.231,6.311-6.774,6.211-10.89-4.431-8.231-6.311h0ZM998.245,524.993c.277.011.491.074.63.207,2.669.967-11.468,6.058-11.562,5.339-.147-.513,8.254-5.648,10.933-5.546ZM999.679,528.252c.146-.011.275.008.382.064,2.519,2.503-7.975,8.052-7.857,7.857-.846-.511,5.283-7.751,7.474-7.921Z"/>
      </g>
    </g>
  </g>

<metadata>
<rdf:RDF>
<cc:Work rdf:about="">
<dc:format>image/svg+xml</dc:format>
<dc:type rdf:resource="http://purl.org/dc/dcmitype/StillImage"/>
<dc:creator>
<cc:Agent>
<dc:title>Farhang Bakhshi</dc:title>
</cc:Agent>
</dc:creator>
<cc:license rdf:resource="http://creativecommons.org/licenses/by-sa/4.0/"/>
</cc:Work>
<cc:License rdf:about="http://creativecommons.org/licenses/by-sa/4.0/">
<cc:permits rdf:resource="http://creativecommons.org/ns#Reproduction"/>
<cc:permits rdf:resource="http://creativecommons.org/ns#Distribution"/>
<cc:requires rdf:resource="http://creativecommons.org/ns#Notice"/>
<cc:requires rdf:resource="http://creativecommons.org/ns#Attribution"/>
<cc:permits rdf:resource="http://creativecommons.org/ns#DerivativeWorks"/>
<cc:requires rdf:resource="http://creativecommons.org/ns#ShareAlike"/>
</cc:License>
</rdf:RDF>
</metadata>

</svg>