<?xml version="1.0" encoding="UTF-8"?>
<svg version="1.1" viewBox="0 0 2560 1440" xmlns="http://www.w3.org/2000/svg" xmlns:cc="http://creativecommons.org/ns#" xmlns:dc="http://purl.org/dc/elements/1.1/" xmlns:rdf="http://www.w3.org/1999/02/22-rdf-syntax-ns#" xmlns:xlink="http://www.w3.org/1999/xlink">
<defs>
<linearGradient id="a">
<stop stop-color="#0b59e6" offset="0"/>
<stop stop-color="#00a5f8" offset="1"/>
</linearGradient>
<linearGradient id="b" x2="2560" y1="968.25" y2="293.03" gradientTransform="translate(0 84)" gradientUnits="userSpaceOnUse" xlink:href="#a"/>
<linearGradient id="e" x1="1280" x2="1280" y1="1356" y2="-84" gradientTransform="translate(0 84)" gradientUnits="userSpaceOnUse" xlink:href="#a"/>
<linearGradient id="d" x1="581.85" x2="1963.7" y1="970.12" y2="970.12" gradientTransform="matrix(1.557 0 0 1.1027 -3465.9 -634.72)" gradientUnits="userSpaceOnUse">
<stop stop-color="#fcfdff" stop-opacity=".55215" offset="0"/>
<stop stop-color="#fff" stop-opacity="0" offset="1"/>
</linearGradient>
<linearGradient id="c" x1="581.85" x2="1963.7" y1="970.12" y2="970.12" gradientTransform="matrix(1.0044 0 0 .73511 -584.4 -53.147)" gradientUnits="userSpaceOnUse">
<stop stop-color="#8becff" stop-opacity=".64417" offset="0"/>
<stop stop-color="#98eeff" stop-opacity="0" offset="1"/>
</linearGradient>
</defs>
<metadata>
<rdf:RDF>
<cc:Work rdf:about="">
<dc:format>image/svg+xml</dc:format>
<dc:type rdf:resource="http://purl.org/dc/dcmitype/StillImage"/>
<cc:license rdf:resource="http://creativecommons.org/licenses/by-sa/4.0/"/>
<dc:creator>
<cc:Agent>
<dc:title>Lallinaho, Pasi</dc:title>
</cc:Agent>
</dc:creator>
<dc:contributor>
<cc:Agent>
<dc:title>Steinbeiß, Simon</dc:title>
</cc:Agent>
</dc:contributor>
</cc:Work>
<cc:License rdf:about="http://creativecommons.org/licenses/by-sa/4.0/">
<cc:permits rdf:resource="http://creativecommons.org/ns#Reproduction"/>
<cc:permits rdf:resource="http://creativecommons.org/ns#Distribution"/>
<cc:requires rdf:resource="http://creativecommons.org/ns#Notice"/>
<cc:requires rdf:resource="http://creativecommons.org/ns#Attribution"/>
<cc:permits rdf:resource="http://creativecommons.org/ns#DerivativeWorks"/>
<cc:requires rdf:resource="http://creativecommons.org/ns#ShareAlike"/>
</cc:License>
</rdf:RDF>
</metadata>
<path d="m0 7.4121e-7h2560v1440h-2560z" fill="url(#b)" stroke-linecap="round" stroke-linejoin="round" stroke-width="3"/>
<path d="m0 7.4121e-7h2560v1440h-2560z" fill="url(#e)" stroke-linecap="round" stroke-linejoin="round" stroke-width="3"/>
<path d="m0 510h1387.9v300h-1387.9z" fill="url(#c)" stroke-linecap="round" stroke-linejoin="round" stroke-opacity=".97546" stroke-width="12.889"/>
<path transform="scale(-1,1)" d="m-2560 210h2151.6v450h-2151.6z" fill="url(#d)" stroke-linecap="round" stroke-linejoin="round" stroke-opacity=".97546" stroke-width="19.654"/>
<path d="m1347.8 1040.9a4.6634 5.3282 0 0 1-4.6634 5.3282 4.6634 5.3282 0 0 1-4.6634-5.3282 4.6634 5.3282 0 0 1 4.6634-5.3281 4.6634 5.3282 0 0 1 4.6634 5.3281zm0.01 0.011a4.6634 5.3282 0 0 1-4.6634 5.3281 4.6634 5.3282 0 0 1-4.6633-5.3281 4.6634 5.3282 0 0 1 4.6633-5.3283 4.6634 5.3282 0 0 1 4.6634 5.3283zm-15.131-2.0914c-4.6365 3.2895 2.545 21.904 14.356 11.035-9.2798 0.2737-12.375-2.4532-14.356-11.035zm49.904-26.996c-0.7379-0.8598-4.6533 19.088-2.8428 19.972 1.5543 1.167 4.2617-18.934 2.8428-19.972zm-34.773 29.088a4.6634 5.3282 0 0 1-4.6634 5.3281 4.6634 5.3282 0 0 1-4.6633-5.3281 4.6634 5.3282 0 0 1 4.6633-5.3283 4.6634 5.3282 0 0 1 4.6634 5.3283zm48.213-26.494c-1.4908-1.2375-13.182 17.273-10.597 19.194 1.5544 1.167 11.262-18.534 10.597-19.194zm-48.332 66.398c-1.5728-0.9537 10.69-15.304 13.699-13.747 4.3923 4.3791-13.905 14.088-13.699 13.747zm-8.5285-9.8565c-0.2827-0.9907 17.574-11.83 20.159-9.3376 4.6532 1.6926-19.995 10.595-20.159 9.3376zm-231.43-80.98c0.9002-0.15117 23.347 11.739 38.434 15.848 26.904 6.8995 51.462 27.665 63.332 39.594 0.8802 1.021 10.195-6.9986 19.943-6.4209 13.316 0.8093 54.518 12.436 60.022 4.5185 3.3382-4.6478 3.0989-10.35 7.2636-12.686 2.2421-0.6297-8.3344-20.042 2.9064-26.262 8.0149-4.0198 14.807 18.486 16.865 21.008 0.922 1.1283 5.8128 1.4038 5.2339-1.167-0.6275-2.7924-8.5386-24.388 1.163-28.011 15.757-6.2615 12.964 27.632 13.374 28.596 0.8718 2.052 54.877 3.6336 58.152 28.011 1.8941 13.416-43.267 30.757-47.684 33.846-4.4157 3.0896-4.0476 8.0313-2.3259 11.089 1.9795 3.3164 15.136 14.509 13.376 19.841-1.2097 3.0795-25.765-8.2076-27.332-5.8351-3.5757 4.5321 17.875 15.876 10.468 23.926-2.9365 1.9277-36.723-14.195-36.637-14.006-0.9068 0.3459-47.741 8.5854-83.739-2.3357-1.2682-0.3593-23.104 21.167-25.587 20.427-3.3949-1.2494 5.0048-18.722 4.0711-22.176-1.5261-1.9244-15.479 7.813-16.282 2.9183-0.9604-6.4327 12.245-13.828 11.631-18.091-3.405-24.22 1.521-38.363 9.8856-50.186 2.7892-4.3522-32.782-31.309-58.535-41.948-25.751-10.639-39.529-19.656-37.998-20.497z" fill="#fff" fill-rule="evenodd"/>
</svg>
