/* XPM */
static const char * icon48_xpm[] = {
"48 48 488 2",
"  	c None",
". 	c #8B8B8B",
"+ 	c #606060",
"@ 	c #404040",
"# 	c #464646",
"$ 	c #000000",
"% 	c #171716",
"& 	c #E0DFD6",
"* 	c #BBBAB3",
"= 	c #0A0909",
"- 	c #191818",
"; 	c #EEEDE4",
"> 	c #C7C6BE",
", 	c #0A0A0A",
"' 	c #C9C9C1",
") 	c #C1C0B9",
"! 	c #B3B2AB",
"~ 	c #DDDCD3",
"{ 	c #B5B4AD",
"] 	c #D1D0C8",
"^ 	c #D3D2CA",
"/ 	c #D4D3CB",
"( 	c #D2D1CA",
"_ 	c #C0BFB8",
": 	c #D0CFC7",
"< 	c #CFCEC6",
"[ 	c #CECDC5",
"} 	c #9E9D97",
"| 	c #979691",
"1 	c #888782",
"2 	c #CAC9C2",
"3 	c #9A9993",
"4 	c #787873",
"5 	c #7A7A75",
"6 	c #9C9B95",
"7 	c #92918B",
"8 	c #A1A19A",
"9 	c #8F8E89",
"0 	c #999892",
"a 	c #91918B",
"b 	c #A2A19B",
"c 	c #E8E7DF",
"d 	c #E8E7DE",
"e 	c #CBCAC2",
"f 	c #84837E",
"g 	c #8E8E88",
"h 	c #71716C",
"i 	c #9F9F99",
"j 	c #A4A49D",
"k 	c #C9C8C0",
"l 	c #EBEAE1",
"m 	c #D7D6CE",
"n 	c #7A7974",
"o 	c #0A0A02",
"p 	c #525200",
"q 	c #0F0F02",
"r 	c #302F2E",
"s 	c #1A1A19",
"t 	c #464643",
"u 	c #575753",
"v 	c #646460",
"w 	c #7D7C78",
"x 	c #A2A29B",
"y 	c #C8C7C0",
"z 	c #ECEBE2",
"A 	c #EDECE3",
"B 	c #6C6C68",
"C 	c #474700",
"D 	c #959500",
"E 	c #939300",
"F 	c #7D7D00",
"G 	c #8C8C00",
"H 	c #8E8E00",
"I 	c #818100",
"J 	c #727200",
"K 	c #555500",
"L 	c #2D2D00",
"M 	c #16160A",
"N 	c #80807B",
"O 	c #DDDCD4",
"P 	c #63625F",
"Q 	c #090901",
"R 	c #616100",
"S 	c #A6A500",
"T 	c #A4A400",
"U 	c #FDFD00",
"V 	c #FFFF00",
"W 	c #6F6F00",
"X 	c #575754",
"Y 	c #DCDBD3",
"Z 	c #B9B8B1",
"` 	c #95948E",
" .	c #A7A100",
"..	c #E8E300",
"+.	c #939200",
"@.	c #D3D300",
"#.	c #B9B900",
"$.	c #1C1C16",
"%.	c #CDCCC4",
"&.	c #463F00",
"*.	c #FCE800",
"=.	c #FAEF00",
"-.	c #B8B400",
";.	c #A5A500",
">.	c #F5F500",
",.	c #F9F900",
"'.	c #464601",
").	c #201F1E",
"!.	c #41413F",
"~.	c #E4E3DA",
"{.	c #84847E",
"].	c #ACACA5",
"^.	c #A3A39C",
"/.	c #100F09",
"(.	c #BBA100",
"_.	c #FFE200",
":.	c #FFEB00",
"<.	c #E5DB00",
"[.	c #9A9700",
"}.	c #F3F300",
"|.	c #BBBB00",
"1.	c #010101",
"2.	c #7B7B76",
"3.	c #070707",
"4.	c #D6D5CD",
"5.	c #ABAAA4",
"6.	c #93928D",
"7.	c #5A5956",
"8.	c #372E00",
"9.	c #FDD500",
"0.	c #FFDA00",
"a.	c #FFF400",
"b.	c #FFFC00",
"c.	c #F8F800",
"d.	c #464600",
"e.	c #101315",
"f.	c #343E45",
"g.	c #060606",
"h.	c #90908A",
"i.	c #B8B7B0",
"j.	c #030303",
"k.	c #1E1E1F",
"l.	c #C3CDD6",
"m.	c #B1BBC3",
"n.	c #191B1D",
"o.	c #9D8400",
"p.	c #FFD600",
"q.	c #FFD700",
"r.	c #FFDB00",
"s.	c #FFE300",
"t.	c #FFEC00",
"u.	c #979100",
"v.	c #060603",
"w.	c #647885",
"x.	c #8FAEC2",
"y.	c #2A353B",
"z.	c #535556",
"A.	c #B1B0A9",
"B.	c #CDCDC5",
"C.	c #0C0C0B",
"D.	c #202122",
"E.	c #B0C0D0",
"F.	c #A5B4C3",
"G.	c #919EAC",
"H.	c #A5B5C4",
"I.	c #A4B3C2",
"J.	c #A8B7C6",
"K.	c #737E88",
"L.	c #181400",
"M.	c #DEBB00",
"N.	c #E3C300",
"O.	c #111000",
"P.	c #2F393F",
"Q.	c #95B6CA",
"R.	c #94B8CE",
"S.	c #85A9BE",
"T.	c #2A373E",
"U.	c #6D6D69",
"V.	c #E9E8DF",
"W.	c #E7E6DE",
"X.	c #0E0E0D",
"Y.	c #AFBECE",
"Z.	c #6A737D",
"`.	c #666F78",
" +	c #5E6770",
".+	c #8C99A6",
"++	c #2A2E32",
"@+	c #251F00",
"#+	c #171400",
"$+	c #0D0B00",
"%+	c #262000",
"&+	c #0D0F11",
"*+	c #829FB2",
"=+	c #93B8CE",
"-+	c #8FB6CD",
";+	c #8CB6CD",
">+	c #86B2CA",
",+	c #394D59",
"'+	c #020304",
")+	c #4A4A47",
"!+	c #DEDDD5",
"~+	c #878681",
"{+	c #686763",
"]+	c #8A8984",
"^+	c #95958F",
"/+	c #92918C",
"(+	c #A1A09A",
"_+	c #202121",
":+	c #B3C2D1",
"<+	c #B2C1D0",
"[+	c #B3C2D0",
"}+	c #A3B1BE",
"|+	c #5F676E",
"1+	c #818C96",
"2+	c #94A0AC",
"3+	c #484E54",
"4+	c #1A2023",
"5+	c #688293",
"6+	c #8AB1C7",
"7+	c #8BB5CD",
"8+	c #87B4CD",
"9+	c #83B3CD",
"0+	c #7EAFC9",
"a+	c #476574",
"b+	c #050809",
"c+	c #2B2B29",
"d+	c #B6B6AF",
"e+	c #DCDBD2",
"f+	c #D5D4CC",
"g+	c #C6C6BE",
"h+	c #D3D3CB",
"i+	c #D2D2CA",
"j+	c #E5E6E1",
"k+	c #A5A59F",
"l+	c #545350",
"m+	c #111111",
"n+	c #010202",
"o+	c #1F292E",
"p+	c #688C9F",
"q+	c #82B3CD",
"r+	c #7FB2CC",
"s+	c #7BB1CC",
"t+	c #77AFCB",
"u+	c #568298",
"v+	c #0D1518",
"w+	c #7C7B77",
"x+	c #D8D7CE",
"y+	c #82817C",
"z+	c #8B8A85",
"A+	c #AAA9A3",
"B+	c #9B9A94",
"C+	c #BEBEB6",
"D+	c #8D8C87",
"E+	c #A5A49E",
"F+	c #A6A59F",
"G+	c #A9A8A1",
"H+	c #A7A6A0",
"I+	c #474744",
"J+	c #100F0F",
"K+	c #030405",
"L+	c #3C5662",
"M+	c #74A8C2",
"N+	c #76B0CC",
"O+	c #73AFCC",
"P+	c #6FAECB",
"Q+	c #63A0BC",
"R+	c #253E4A",
"S+	c #010203",
"T+	c #302F2D",
"U+	c #8F8F8A",
"V+	c #969690",
"W+	c #94938D",
"X+	c #908F8A",
"Y+	c #8C8C86",
"Z+	c #A09F99",
"`+	c #A1A19B",
" @	c #7C7B76",
".@	c #95948F",
"+@	c #C8C7BF",
"@@	c #DFDED5",
"#@	c #C4C3BC",
"$@	c #BEBDB6",
"%@	c #C6C5BE",
"&@	c #B4B3AC",
"*@	c #ADACA6",
"=@	c #B0AFA8",
"-@	c #A9A8A2",
";@	c #B5B5AE",
">@	c #B0AFA9",
",@	c #B1B1AA",
"'@	c #5B5A57",
")@	c #060706",
"!@	c #1A262C",
"~@	c #5E90A8",
"{@	c #6EADCB",
"]@	c #6BACCB",
"^@	c #67ABCB",
"/@	c #61A7C7",
"(@	c #3C6A7F",
"_@	c #070C0F",
":@	c #73736E",
"<@	c #BCBBB4",
"[@	c #B9B9B1",
"}@	c #B1B0AA",
"|@	c #CCCBC4",
"1@	c #CAC9C1",
"2@	c #CECEC6",
"3@	c #DDDDD4",
"4@	c #81817C",
"5@	c #040404",
"6@	c #090F11",
"7@	c #4C7B92",
"8@	c #66ABCB",
"9@	c #63AACB",
"0@	c #5FA9CA",
"a@	c #5BA8CA",
"b@	c #488BA8",
"c@	c #13262E",
"d@	c #020202",
"e@	c #5E5D5A",
"f@	c #D8D7CF",
"g@	c #7A7975",
"h@	c #AEADA7",
"i@	c #0C0C0C",
"j@	c #282826",
"k@	c #030607",
"l@	c #3A6579",
"m@	c #5EA9CA",
"n@	c #5AA8CA",
"o@	c #57A7CA",
"p@	c #53A6CA",
"q@	c #4DA0C4",
"r@	c #265265",
"s@	c #020506",
"t@	c #232322",
"u@	c #B6B5AE",
"v@	c #E1E0D7",
"w@	c #BBBBB4",
"x@	c #C3C3BB",
"y@	c #C1C1B9",
"z@	c #7B7A76",
"A@	c #AFAFA8",
"B@	c #333331",
"C@	c #2E5667",
"D@	c #54A2C5",
"E@	c #52A5CA",
"F@	c #4EA5C9",
"G@	c #4BA4C9",
"H@	c #47A2C8",
"I@	c #317693",
"J@	c #09181E",
"K@	c #0B0B0B",
"L@	c #E6E5DC",
"M@	c #5D5D5A",
"N@	c #010102",
"O@	c #234757",
"P@	c #4CA1C5",
"Q@	c #4AA3C9",
"R@	c #46A2C9",
"S@	c #43A1C9",
"T@	c #3FA0C8",
"U@	c #358EB2",
"V@	c #10303C",
"W@	c #565652",
"X@	c #DFDED6",
"Y@	c #A3A29C",
"Z@	c #AFAEA7",
"`@	c #989792",
" #	c #B3B3AC",
".#	c #A8A8A1",
"+#	c #A4A39D",
"@#	c #AFAEA8",
"##	c #70706B",
"$#	c #1A3A47",
"%#	c #439DC3",
"&#	c #42A1C9",
"*#	c #3EA0C8",
"=#	c #3A9FC8",
"-#	c #379EC8",
";#	c #339CC7",
">#	c #185269",
",#	c #020608",
"'#	c #2F2F2D",
")#	c #A6A69F",
"!#	c #81807B",
"~#	c #C5C4BC",
"{#	c #C3C2BB",
"]#	c #BDBCB4",
"^#	c #BCBCB4",
"/#	c #EAE9E0",
"(#	c #7C7C77",
"_#	c #050505",
":#	c #163745",
"<#	c #3A96BC",
"[#	c #369EC8",
"}#	c #329DC8",
"|#	c #2F9BC7",
"1#	c #2A9AC6",
"2#	c #1A6684",
"3#	c #02090B",
"4#	c #1E1E1D",
"5#	c #B7B6AF",
"6#	c #898883",
"7#	c #112E3A",
"8#	c #3193BB",
"9#	c #319CC8",
"0#	c #2E9BC7",
"a#	c #2A9AC7",
"b#	c #2699C7",
"c#	c #2398C7",
"d#	c #156B8C",
"e#	c #010607",
"f#	c #343432",
"g#	c #070706",
"h#	c #40403D",
"i#	c #31312F",
"j#	c #5B5B58",
"k#	c #080807",
"l#	c #0A1F27",
"m#	c #288BB2",
"n#	c #299AC7",
"o#	c #2599C7",
"p#	c #2298C7",
"q#	c #1E97C6",
"r#	c #1A96C6",
"s#	c #10698B",
"t#	c #010507",
"u#	c #D0CFC8",
"v#	c #63635F",
"w#	c #101010",
"x#	c #071B22",
"y#	c #1E7FA5",
"z#	c #2198C7",
"A#	c #1D97C6",
"B#	c #1695C6",
"C#	c #1293C5",
"D#	c #063B50",
"E#	c #090908",
"F#	c #222222",
"G#	c #D0D0C8",
"H#	c #121212",
"I#	c #031015",
"J#	c #136585",
"K#	c #1996C6",
"L#	c #1594C6",
"M#	c #1294C6",
"N#	c #0E92C5",
"O#	c #086D94",
"P#	c #AAAAA3",
"Q#	c #BEBEB7",
"R#	c #373634",
"S#	c #083F54",
"T#	c #0F89B8",
"U#	c #0D92C5",
"V#	c #0991C5",
"W#	c #046387",
"X#	c #B4B4AD",
"Y#	c #82817D",
"Z#	c #70706C",
"`#	c #6A6A66",
" $	c #706F6B",
".$	c #060707",
"+$	c #02141B",
"@$	c #04445D",
"#$	c #03516E",
"$$	c #001319",
"%$	c #1D1C1B",
"&$	c #AEADA6",
"*$	c #252524",
"=$	c #D4D4CB",
"-$	c #DBDAD2",
";$	c #BDBDB5",
">$	c #767571",
",$	c #8A8A85",
"'$	c #7F7F7A",
")$	c #D2D1C9",
"!$	c #777772",
"~$	c #757570",
"{$	c #868580",
"]$	c #7E7E79",
"^$	c #EAE9E1",
"/$	c #E7E6DD",
"($	c #DBDAD1",
"_$	c #E2E1D8",
":$	c #E3E2D9",
"<$	c #E5E4DB",
"[$	c #2B2B2A",
"}$	c #353533",
"                                                                                                ",
"  . + + + + + + + + + + + + + + + + + + + + + + @                                               ",
"  # $ $ $ $ $ $ $ $ $ $ $ $ $ $ $ $ $ $ $ $ $ $ $ $                                             ",
"  # % & & & & & & & & & & & & & & & & & & & & & * = $                                           ",
"  # - ; ; ; ; ; ; ; ; ; ; ; ; ; ; ; ; ; ; ; ; ; > , $                                           ",
"  # - ; ; ; ; ; ; ; ; ; ; ; ; ; ; ; ; ; ; ; ; ; > , $                                           ",
"  # - ' ) ) ) ) ) ) ) ) ) ) ) ) ) ) ) ) ) ) ) ) ! , $                                           ",
"  # - ; ; ; ; ; ; ; ; ; ; ; ; ; ; ; ; ; ; ; ; ; > , $                                           ",
"  # - ; ; ; ~ { ] ^ / / ( ] _ : < ! [ ^ / ; ; ; > , $                                           ",
"  # - ; ; ; ; } | 1 2 3 4 5 6 7 8 9 0 a b ; ; ; > , $                                           ",
"  # - ; ; ; ; ; ; ; ; ; c d ; ; ; ; ; ; ; ; ; ; > , $                                           ",
"  # - ; ; ; e f g h i j k l ; ; ; ; ; ; ; ; ; ; > , $                                           ",
"  # - ; ; ; m n o p q r s t u v w x y z ; ; ; ; > , $                                           ",
"  # - ; ; ; A B C D E F G H I J K L M N ; ; ; ; > , $                                           ",
"  # - ; ; ; O P Q R S T U V V V V V W X ; ; ; ; > , $                                           ",
"  # - ; ; ; Y Z ` s  ...+.@.V V V V #.$.%.^ ; ; > , $                                           ",
"  # - ; ; ; ; ; ; n &.*.=.-.;.>.V V ,.'.).!.~.; > , $                                           ",
"  # - ; ; ; e {.].^./.(._.:.<.[.}.V V |.$ 1.2.; ) 3.$ $                                         ",
"  # - ; ; ; 4.5.6.b 7.8.9.0._.:.a.b.c.d.e.f.g.h.i.j.1.1.1.1.1.1.1.1.1.1.1.1.1.1.1.1.1.1.1.$ $   ",
"  # k.l.l.l.l.l.l.l.m.n.o.p.q.r.s.t.u.v.w.x.y.3.z.A.B.] ] ] ] ] ] ] ] ] ] ] ] ] ] ] ] ] ] C.$   ",
"  # D.E.E.E.F.G.H.I.J.K.L.M.p.p.q.N.O.P.Q.R.S.T.$ U.V.; ; W.W.; ; l V.; ; ; ; ; ; ; ; ; ; X.$   ",
"  # D.E.E.E.Y.Z.`. +.+Z.++@+#+$+%+%+&+*+=+-+;+>+,+'+)+!+; ~+{+]+^+g /+(+; ; ; ; ; ; ; ; ; X.$   ",
"  # _+:+:+:+:+<+:+<+[+:+}+|+1+2+3+$ 4+5+6+7+8+9+0+a+b+c+d+e+f+: g+] h+i+; ; ; ; ; ; ; ; ; X.$   ",
"  # s j+j+j+j+j+j+j+j+j+j+j+j+j+k+l+m+n+o+p+q+r+s+t+u+v+C.w+z ; ; ; ; ; ; ; ; ; ; ; ; ; ; X.$   ",
"  # - ; ; ; x+y+z+A+B+C+D+E+F+G+(+H+h I+J+K+L+M+N+O+P+Q+R+S+T+U+V+^ W+h.X+Y+Z+`+ @.@3 +@; X.$   ",
"  # - ; ; ; @@#@$@A.%@< &@*@* =@-@;@! >@,@'@)@!@~@{@]@^@/@(@_@C.:@W.<@[@}@|@1@k 2@e ^ 3@; X.$   ",
"  # - ; ; ; ; ; ; ; ; ; ; ; ; ; ; ; ; ; ; z 4@5@6@7@8@9@0@a@b@c@d@e@@@; ; ; ; ; ; ; ; ; ; X.$   ",
"  # - ; ; ; f@g@~+x 6.h@; ; ; ; ; ; ; ; ; ; ].i@j@k@l@m@n@o@p@q@r@s@t@u@; ; ; ; ; ; ; ; ; X.$   ",
"  # - ; ; ; v@e ! w@x@y@; ; ; ; ; ; ; ; ; ; }@z@A@B@K+C@D@E@F@G@H@I@J@K@z+d ; ; ; ; ; ; ; X.$   ",
"  # - ; ; ; ; ; ; ; ; ; ; ; ; ; ; ; ; ; ; ; L@z i.+@M@N@O@P@Q@R@S@T@U@V@d@W@X@; ; ; ; ; ; X.$   ",
"  # - ; ; ; Y z+Y@F+_ Z@^.(+`@E+ #f .#+#@#; ; ; i.^ ; ##5@$#%#&#*#=#-#;#>#,#'#)#D+!#j >@; X.$   ",
"  # - ; ; ; ; +@~#! !+$@(+E+{#]#^#$@$@_ y ; ; ; i.^ ; /#(#_#:#<#=#[#}#|#1#2#3#4#/+5#*@e ; X.$   ",
"  # - ; ; ; ; ; ; ; ; ; ; ; ; ; ; ; ; ; ; ; ; ; i.^ ; ; l 6#1.7#8#9#0#a#b#c#d#e#f#X@; ; ; X.$   ",
"  K@g#h#h#h#h#h#h#h#h#h#h#h#h#h#h#h#h#h#h#h#h#h#i#] ; ; ; ,@j#k#l#m#n#o#p#q#r#s#t#v ; ; ; X.$   ",
"    $ $ $ $ $ $ $ $ $ $ $ $ $ $ $ $ $ $ $ $ $ 5@$ u#; ; ; 5.1 v#w#x#y#z#A#r#B#C#D#E#e+; ; X.$   ",
"                                              F#d@G#; ; ; ; ; ; 5#H#I#J#K#L#M#N#O#$ P#; ; X.$   ",
"                                                j.G#; ; ; f@Q#& & Z R#$ S#T#U#V#W#$ >@; ; X.$   ",
"                                                5@] ; ; ; X#Y#Z#6#`#h@ $.$+$@$#$$$%$c ; ; X.$   ",
"                                                5@G#; ; ; l l L@d L@V.; &$!.j.$ *$<@; ; ; X.$   ",
"                                                5@G#; ; ; Y ~.z z A A ; A !+~.=$-$A A ; ; X.$   ",
"                                                5@] ; ; ; ;$>$,$'$)$!$~$:@{$D+]+!$]$~+;$; X.$   ",
"                                                5@G#; ; ; ^$~./$v@; ($m ] _$X@:$<$:$L@d ; X.$   ",
"                                                j.G#; ; ; ; ; ; ; ; ; ; ; ; ; ; ; ; ; ; ; X.$   ",
"                                                j.[$f#}$}$}$}$}$}$}$}$}$}$}$}$}$}$}$}$}$}$j.$   ",
"                                                1.$ $ $ $ $ $ $ $ $ $ $ $ $ $ $ $ $ $ $ $ $ $   ",
"                                                                                                ",
"                                                                                                ",
"                                                                                                "};
