/* XPM */
static const char * icon32_xpm[] = {
"32 32 255 2",
"  	c None",
". 	c #393939",
"+ 	c #3E3E3D",
"@ 	c #212120",
"# 	c #3C3C3A",
"$ 	c #EEEDE4",
"% 	c #A9A8A2",
"& 	c #000000",
"* 	c #001A24",
"= 	c #004762",
"- 	c #005E81",
"; 	c #000405",
"> 	c #D4D3CB",
", 	c #D0CFC7",
"' 	c #A09F99",
") 	c #000203",
"! 	c #032F40",
"~ 	c #016F98",
"{ 	c #008FC5",
"] 	c #00709B",
"^ 	c #001118",
"/ 	c #D9D8D0",
"( 	c #D5D4CC",
"_ 	c #DAD9D0",
": 	c #DFDED6",
"< 	c #DEDDD5",
"[ 	c #D0D0C8",
"} 	c #DAD9D1",
"| 	c #CDCCC4",
"1 	c #D8D7CF",
"2 	c #DFDED5",
"3 	c #010405",
"4 	c #0D3B4E",
"5 	c #1180AB",
"6 	c #0490C5",
"7 	c #008ABE",
"8 	c #00435C",
"9 	c #000304",
"0 	c #D7D7CE",
"a 	c #BAB9B2",
"b 	c #B1B0A9",
"c 	c #C9C8C0",
"d 	c #A4A49E",
"e 	c #A6A69F",
"f 	c #BBBBB3",
"g 	c #ABAAA4",
"h 	c #AEADA6",
"i 	c #BEBDB6",
"j 	c #010303",
"k 	c #143A49",
"l 	c #2485AB",
"m 	c #1996C6",
"n 	c #0791C5",
"o 	c #00668D",
"p 	c #00161E",
"q 	c #C9C8C1",
"r 	c #B7B6AF",
"s 	c #CFCEC6",
"t 	c #C0C0B8",
"u 	c #DCDBD3",
"v 	c #162F39",
"w 	c #3586A7",
"x 	c #2F9CC8",
"y 	c #1D97C6",
"z 	c #0A83B2",
"A 	c #003042",
"B 	c #D3D2CA",
"C 	c #BDBDB5",
"D 	c #C1C1B9",
"E 	c #C0BFB8",
"F 	c #EBEAE1",
"G 	c #71706C",
"H 	c #0E191E",
"I 	c #3B758E",
"J 	c #45A2C9",
"K 	c #339DC8",
"L 	c #2097C6",
"M 	c #0B5774",
"N 	c #000B0E",
"O 	c #CCCBC3",
"P 	c #B6B5AE",
"Q 	c #C2C1BA",
"R 	c #C6C6BE",
"S 	c #B0AFA8",
"T 	c #313434",
"U 	c #3A5F70",
"V 	c #59A4C6",
"W 	c #49A3C9",
"X 	c #379EC8",
"Y 	c #2188B0",
"Z 	c #072835",
"` 	c #DCDBD2",
" .	c #CAC9C2",
"..	c #555451",
"+.	c #314650",
"@.	c #679FBA",
"#.	c #5FA9CA",
"$.	c #4DA4C9",
"%.	c #3A9FC8",
"&.	c #1C6582",
"*.	c #020B0F",
"=.	c #C1C0B9",
"-.	c #B2B1AA",
";.	c #282D30",
">.	c #628598",
",.	c #75AFCC",
"'.	c #63AACB",
").	c #51A5CA",
"!.	c #3E9EC6",
"~.	c #17485C",
"{.	c #343434",
"].	c #E6E7E1",
"^.	c #CACBC7",
"/.	c #B0B2AE",
"(.	c #B4B5B2",
"_.	c #B8B9B6",
":.	c #B7B9B5",
"<.	c #DEDFDA",
"[.	c #171717",
"}.	c #5C7989",
"|.	c #79B0CC",
"1.	c #67ABCB",
"2.	c #54A6CA",
"3.	c #3F99BF",
"4.	c #14313D",
"5.	c #52524F",
"6.	c #111111",
"7.	c #3C3C3B",
"8.	c #B0C0D0",
"9.	c #A4B3C2",
"0.	c #A8B8C7",
"a.	c #ACBBCB",
"b.	c #ABBBCB",
"c.	c #A2B1C0",
"d.	c #606561",
"e.	c #A99600",
"f.	c #5B5601",
"g.	c #2F4C5A",
"h.	c #55A2C4",
"i.	c #439ABE",
"j.	c #162C35",
"k.	c #EAE9E1",
"l.	c #131312",
"m.	c #9CAAB8",
"n.	c #838F9B",
"o.	c #7C8793",
"p.	c #909DAA",
"q.	c #737E88",
"r.	c #32332A",
"s.	c #BBA500",
"t.	c #D3C500",
"u.	c #FFFA00",
"v.	c #A59B00",
"w.	c #1C2A24",
"x.	c #132C37",
"y.	c #8C8F90",
"z.	c #B8B8B1",
"A.	c #8A8984",
"B.	c #989892",
"C.	c #8F8E89",
"D.	c #B3B2AC",
"E.	c #D6DBDC",
"F.	c #969B9E",
"G.	c #867501",
"H.	c #BCB000",
"I.	c #FFF900",
"J.	c #FFF200",
"K.	c #F6DA00",
"L.	c #635920",
"M.	c #9A9C99",
"N.	c #D0D3CF",
"O.	c #BABAB3",
"P.	c #8D8C87",
"Q.	c #A3A29C",
"R.	c #A0A09A",
"S.	c #4A4316",
"T.	c #C5B700",
"U.	c #EBE600",
"V.	c #918C01",
"W.	c #686114",
"X.	c #47442F",
"Y.	c #DCDCD3",
"Z.	c #CFCEC7",
"`.	c #9B9A94",
" +	c #9A9A94",
".+	c #C3C2BB",
"++	c #878681",
"@+	c #969590",
"#+	c #9B9B95",
"$+	c #A4A39D",
"%+	c #7F7E78",
"&+	c #9B9000",
"*+	c #8A840A",
"=+	c #7D7C6B",
"-+	c #EAEAE1",
";+	c #BCBBB4",
">+	c #85847F",
",+	c #8B8B85",
"'+	c #413D0A",
")+	c #6A673C",
"!+	c #3F3F3D",
"~+	c #D7D6CE",
"{+	c #858580",
"]+	c #989791",
"^+	c #90908A",
"/+	c #48451C",
"(+	c #DDDCD4",
"_+	c #D1D0C8",
":+	c #A1A09A",
"<+	c #9C9B95",
"[+	c #B9B8B1",
"}+	c #A7A6A0",
"|+	c #979690",
"1+	c #AFAEA7",
"2+	c #898883",
"3+	c #9D9C96",
"4+	c #8A8A84",
"5+	c #95958F",
"6+	c #9A9993",
"7+	c #7A7974",
"8+	c #8F8F89",
"9+	c #E4E3DA",
"0+	c #E7E6DD",
"a+	c #EAE9E0",
"b+	c #10100F",
"c+	c #484845",
"d+	c #6C6B67",
"e+	c #BDBCB5",
"f+	c #9A9994",
"g+	c #A2A29B",
"h+	c #C5C4BC",
"i+	c #2C2C2C",
"j+	c #444341",
"k+	c #E6E5DD",
"l+	c #DADAD1",
"m+	c #D2D1C9",
"n+	c #4C4C4A",
"o+	c #D6D5CD",
"p+	c #AAA9A3",
"q+	c #B5B4AD",
"r+	c #E1E0D8",
"s+	c #CBCAC2",
"t+	c #C7C6BE",
"u+	c #C5C4BD",
"v+	c #CBCAC3",
"w+	c #CAC9C1",
"x+	c #C4C3BC",
"y+	c #E5E4DB",
"z+	c #B0B0A9",
"A+	c #B2B2AB",
"B+	c #C6C5BD",
"C+	c #C7C6BF",
"D+	c #41413F",
"E+	c #0F0F0F",
"F+	c #101010",
"                                                                ",
"  . + + + + + + + + + + + + + + @                               ",
"  # $ $ $ $ $ $ $ $ $ $ $ $ $ $ % &                       &     ",
"  # $ $ $ $ $ $ $ $ $ $ $ $ $ $ % &                 & * = - ;   ",
"  # > , , , , , , , , , , , , , ' &             ) ! ~ { ] ^     ",
"  # $ $ / ( _ : < [ } | 1 2 $ $ % &         3 4 5 6 7 8 9       ",
"  # $ $ 0 a b c d e f g h i $ $ % &     j k l m n o p           ",
"  # $ $ q r s t u $ $ $ $ $ $ $ % & & v w x y z A &             ",
"  # $ $ B a C D E $ $ $ $ $ $ F G H I J K L M N                 ",
"  # $ $ O P Q R $ $ $ $ $ $ S T U V W X Y Z                     ",
"  # $ $ ` i Q  .$ $ $ $ u ..+.@.#.$.%.&.*.                      ",
"  # $ $ q r s =.u $ $ -.;.>.,.'.).!.~.{.                        ",
"  # ].].^./.(._.:.].<.[.}.|.1.2.3.4.# 5.5.5.5.5.5.5.5.5.5.5.6.  ",
"  7.8.8.9.9.0.a.b.c.d.e.f.g.h.i.j.g $ F F $ k.$ $ $ $ $ $ $ l.  ",
"  7.8.8.m.n.o.p.q.r.s.t.u.v.w.x.y.$ $ z.A.B.C.D.$ $ $ $ $ $ l.  ",
"  # E.E.E.E.E.E.F.G.H.I.J.K.L.M.N.$ $ $ $ $ $ $ $ $ $ $ $ $ l.  ",
"  # $ $ O.P.Q.R.S.T.U.V.W.X.B $ Y.$ $ Z.`. +.+C.++e @+#+$+$ l.  ",
"  # $ $ $ $ $ %+&+*+=+( $ $ $ | Y.$ $ $ $ $ $ -+-+$ $ $ $ $ l.  ",
"  # $ $ ;+>+,+'+)+B $ $ $ $ $ !+~+$ $ q {+]+^+$ $ $ $ $ $ $ l.  ",
"  # $ $ $ $ P /+(+$ $ $ $ $ $ _+Y.$ $ $ $ $ $ $ $ $ $ $ $ $ l.  ",
"  # $ $ Q :+<+[+`.P.}+A.|+1+$ $ Y.$ $  .2+3+g 4+]+5+6+7+8+9+l.  ",
"  # $ $ $ $ $ $ 0+a+$ $ $ $ $ $ Y.$ $ $ $ $ $ $ $ $ $ $ $ $ l.  ",
"  b+c+c+c+c+c+c+c+c+c+c+c+c+c+c+d+$ $ e+f+r g+h+$ $ $ $ $ $ l.  ",
"                              i+j+$ $ k+l+m+~+} $ $ $ $ $ $ l.  ",
"                                n+$ $ o+p+a q+$ $ $ $ $ $ $ l.  ",
"                                n+$ $ r+s+s+t+$ $ $ $ $ $ $ l.  ",
"                                n+$ $ 1 u+v+} w+E s x+q s+$ l.  ",
"                                n+$ $ y+x+e+1 z+A+B+=.E C+$ l.  ",
"                                D+u+q q q q q q q q q q q q E+  ",
"                                F+& & & & & & & & & & & & & &   ",
"                                                                ",
"                                                                "};
