/* XPM */
static const char * icon24_xpm[] = {
"24 24 183 2",
"  	c None",
". 	c #3E3D3B",
"+ 	c #706F6B",
"@ 	c #31312F",
"# 	c #83837E",
"$ 	c #EEEDE4",
"% 	c #686864",
"& 	c #7A7A75",
"* 	c #D8D7CE",
"= 	c #D7D7CE",
"- 	c #63635F",
"; 	c #C7C6BF",
"> 	c #B0B0A9",
", 	c #C3C2BB",
"' 	c #A6A59F",
") 	c #AFAFA8",
"! 	c #ACACA5",
"~ 	c #B3B2AB",
"{ 	c #D4D4CC",
"] 	c #CBCAC2",
"^ 	c #B7B6AF",
"/ 	c #C8C7BF",
"( 	c #E1E0D7",
"_ 	c #ABAAA3",
": 	c #4E4E01",
"< 	c #54540C",
"[ 	c #5F5E17",
"} 	c #6C6C2D",
"| 	c #686845",
"1 	c #93928A",
"2 	c #B5B4AD",
"3 	c #46462A",
"4 	c #B6B300",
"5 	c #D8D800",
"6 	c #FFFF00",
"7 	c #67671A",
"8 	c #DFDED6",
"9 	c #AEADA6",
"0 	c #837602",
"a 	c #ECDC00",
"b 	c #C6C300",
"c 	c #FCFC00",
"d 	c #BEBE00",
"e 	c #181817",
"f 	c #CFCEC6",
"g 	c #666662",
"h 	c #000000",
"i 	c #7A7C7C",
"j 	c #D8DDDD",
"k 	c #C2C6C7",
"l 	c #AEB3B5",
"m 	c #57574E",
"n 	c #E6C200",
"o 	c #FFE000",
"p 	c #FFF000",
"q 	c #777501",
"r 	c #4E5E68",
"s 	c #323434",
"t 	c #70706D",
"u 	c #696965",
"v 	c #373735",
"w 	c #687079",
"x 	c #B0C0D0",
"y 	c #94A1AE",
"z 	c #838F9B",
"A 	c #84909C",
"B 	c #51470D",
"C 	c #897300",
"D 	c #8B7600",
"E 	c #343E41",
"F 	c #93B7CD",
"G 	c #7092A5",
"H 	c #2A2F31",
"I 	c #C0BFB8",
"J 	c #D2D2CA",
"K 	c #B2B1AA",
"L 	c #BFBEB7",
"M 	c #C2C2BA",
"N 	c #7E7D79",
"O 	c #74797B",
"P 	c #CCD4D9",
"Q 	c #B3B9BC",
"R 	c #B8BEC1",
"S 	c #505251",
"T 	c #252D32",
"U 	c #678798",
"V 	c #83B3CD",
"W 	c #6E9DB5",
"X 	c #253239",
"Y 	c #868681",
"Z 	c #E0DFD6",
"` 	c #DDDCD4",
" .	c #E0E0D7",
"..	c #A9A8A2",
"+.	c #BCBBB4",
"@.	c #A5A49E",
"#.	c #AEAEA7",
"$.	c #AAA9A3",
"%.	c #878681",
"&.	c #484845",
"*.	c #344B56",
"=.	c #6DA7C3",
"-.	c #69A9C7",
";.	c #315465",
">.	c #343634",
",.	c #B1B0AA",
"'.	c #A6A69F",
").	c #AAAAA3",
"!.	c #C4C4BC",
"~.	c #CBCBC3",
"{.	c #C1C0B9",
"].	c #EDECE3",
"^.	c #504F4C",
"/.	c #202E34",
"(.	c #5899B6",
"_.	c #5BA8CA",
":.	c #3F7E99",
"<.	c #222E32",
"[.	c #A9A9A2",
"}.	c #E2E1D8",
"|.	c #D3D2CA",
"1.	c #D8D7CF",
"2.	c #999892",
"3.	c #242E32",
"4.	c #458CAB",
"5.	c #4AA3C9",
"6.	c #3E96BB",
"7.	c #163846",
"8.	c #73726E",
"9.	c #EAE9E0",
"0.	c #B0AFA9",
"a.	c #A3A29C",
"b.	c #AFAEA8",
"c.	c #B2B2AB",
"d.	c #D5D4CC",
"e.	c #C6C5BD",
"f.	c #CDCDC5",
"g.	c #283032",
"h.	c #3583A3",
"i.	c #3A9FC8",
"j.	c #339CC7",
"k.	c #18566F",
"l.	c #3D3F3D",
"m.	c #95958F",
"n.	c #B3B2AC",
"o.	c #535350",
"p.	c #979691",
"q.	c #A3A39C",
"r.	c #C5C4BD",
"s.	c #1D2527",
"t.	c #257697",
"u.	c #2A9AC7",
"v.	c #2298C7",
"w.	c #105C79",
"x.	c #5E5F5C",
"y.	c #090909",
"z.	c #696864",
"A.	c #383D3D",
"B.	c #156381",
"C.	c #1996C6",
"D.	c #1293C5",
"E.	c #062C3B",
"F.	c #D8D8CF",
"G.	c #6A6A66",
"H.	c #DAD9D1",
"I.	c #A4A39D",
"J.	c #555552",
"K.	c #08384B",
"L.	c #076E95",
"M.	c #08242F",
"N.	c #E9E8DF",
"O.	c #E8E7DE",
"P.	c #ECEBE2",
"Q.	c #AFAEA7",
"R.	c #6F6E6A",
"S.	c #E1E0D8",
"T.	c #A7A7A0",
"U.	c #ABAAA4",
"V.	c #B6B5AF",
"W.	c #41403E",
"X.	c #91918B",
"Y.	c #92918C",
"Z.	c #4D4D4A",
"                                                ",
"  . + + + + + + + + + + @                       ",
"  # $ $ $ $ $ $ $ $ $ $ %                       ",
"  & * * = * * = * * = * -                       ",
"  # $ ; > , ' ) ! ~ { $ %                       ",
"  # $ ] ^ / ( $ $ $ $ $ %                       ",
"  # $ _ : < [ } | 1 $ $ %                       ",
"  # $ 2 3 4 5 6 6 7 8 $ %                       ",
"  # $ ] 9 0 a b c d e f g h                     ",
"  i j k l m n o p q r s t % u u u u u u u u v   ",
"  w x y z A B C D E F G H I J K L M $ $ $ $ N   ",
"  O P P P P Q R S T U V W X Y Z `  .$ $ $ $ N   ",
"  # $ L ..+.@.#.$.%.&.*.=.-.;.>.,.' '.2 ).!.N   ",
"  # $ ~.{.; $ $ $ $ ].^./.(._.:.<.[.$ $ $ $ N   ",
"  # $ }.|.1.$ $ $ $ $ L 2.3.4.5.6.7.8.9.$ $ N   ",
"  # $ ; 0., a.b.! c.d.$ e.f.g.h.i.j.k.l.m.n.N   ",
"  o.p.p.p.p.p.p.p.p.p.p.q.$ r.s.t.u.v.w.x.$ N   ",
"  h h h h h h h h h h y.z.$ ` K A.B.C.D.E.F.N   ",
"                        G.$ H.I.a.J.K.L.M.` N   ",
"                        G.$ N.O.9.P.Q.R.).$ N   ",
"                        G.$ S.~ / T.U.V.) !.N   ",
"                        W.X.Y.Y.Y.Y.Y.Y.Y.Y.Z.  ",
"                          h h h h h h h h h h   ",
"                                                "};
