/* XPM */
static const char * icon16_xpm[] = {
"16 16 80 1",
" 	c None",
".	c #7A7A7A",
"+	c #BDBCBB",
"@	c #B1B0AE",
"#	c #AAA9A8",
"$	c #525252",
"%	c #727170",
"&	c #6B6B6A",
"*	c #656463",
"=	c #4A4650",
"-	c #80768A",
";	c #4F4A55",
">	c #71687A",
",	c #807689",
"'	c #786F82",
")	c #766C7F",
"!	c #746A7C",
"~	c #535056",
"{	c #272628",
"]	c #625969",
"^	c #756B7E",
"/	c #5E5667",
"(	c #665D6F",
"_	c #5B5263",
":	c #716E73",
"<	c #7C7C7C",
"[	c #373638",
"}	c #534C5B",
"|	c #5E5566",
"1	c #4F4756",
"2	c #919090",
"3	c #8C8B8B",
"4	c #C6C6C6",
"5	c #656565",
"6	c #1A1A1A",
"7	c #707070",
"8	c #8F8F8F",
"9	c #B6B5B5",
"0	c #848484",
"a	c #F9F9F9",
"b	c #6B6B6B",
"c	c #484848",
"d	c #1E1E1E",
"e	c #ACABAA",
"f	c #BCBBBA",
"g	c #838383",
"h	c #F4F4F4",
"i	c #ABABAB",
"j	c #202020",
"k	c #393939",
"l	c #949392",
"m	c #BAB9B8",
"n	c #848483",
"o	c #7A7979",
"p	c #414141",
"q	c #2C2C2C",
"r	c #515151",
"s	c #3A3939",
"t	c #717170",
"u	c #7D7D7C",
"v	c #7E7E7D",
"w	c #B8B7B6",
"x	c #868585",
"y	c #535252",
"z	c #3D3C3C",
"A	c #929292",
"B	c #4D4D4C",
"C	c #AFAEAD",
"D	c #A6A5A5",
"E	c #8F8E8E",
"F	c #373737",
"G	c #363636",
"H	c #9B9A99",
"I	c #BBBAB9",
"J	c #6B6A69",
"K	c #6A6A69",
"L	c #626161",
"M	c #3A3A39",
"N	c #565655",
"O	c #6A6968",
"                ",
"  ............  ",
" .+++++++++++@  ",
" .+++++++++++#  ",
" $%&&&&&&&&&&*  ",
" =--;>,------'  ",
" =)!~{]^)))))/  ",
" =(_:<[}|////1  ",
" $23<456782222  ",
" .+90abcdef++#  ",
" .+9ghijklm++#  ",
" $nopqprstuvvv  ",
" .+wxyzABC+++@  ",
" .+fCDEFGHI++#  ",
" $%&JKLMqNO&&*  ",
"                "};
