/* XPM */
static const char * icon48_xpm[] = {
"48 48 462 2",
"  	c None",
". 	c #D0D0D0",
"+ 	c #A4A4A4",
"@ 	c #7F7F7F",
"# 	c #7C7C7C",
"$ 	c #090908",
"% 	c #1E1E1D",
"& 	c #1D1D1C",
"* 	c #030303",
"= 	c #454542",
"- 	c #EEEDE4",
"; 	c #E4E3DB",
"> 	c #191918",
", 	c #000000",
"' 	c #000101",
") 	c #000C11",
"! 	c #001D28",
"~ 	c #000304",
"{ 	c #E4E4DB",
"] 	c #00070A",
"^ 	c #003042",
"/ 	c #005F83",
"( 	c #0082B3",
"_ 	c #006890",
": 	c #000305",
"< 	c #C9C9C1",
"[ 	c #C1C0B9",
"} 	c #D0D0C8",
"| 	c #000001",
"1 	c #01151D",
"2 	c #014F6D",
"3 	c #0086B8",
"4 	c #008FC5",
"5 	c #008EC3",
"6 	c #00597A",
"7 	c #000608",
"8 	c #E5E4DB",
"9 	c #010304",
"0 	c #06212C",
"a 	c #0B5F7F",
"b 	c #0788BA",
"c 	c #003448",
"d 	c #000405",
"e 	c #DDDCD3",
"f 	c #B5B4AD",
"g 	c #D1D0C8",
"h 	c #D3D2CA",
"i 	c #D4D3CB",
"j 	c #D2D1CA",
"k 	c #C0BFB8",
"l 	c #D0CFC7",
"m 	c #CFCEC6",
"n 	c #B3B2AB",
"o 	c #CECDC5",
"p 	c #08212A",
"q 	c #166989",
"r 	c #1592C3",
"s 	c #0A91C5",
"t 	c #018FC5",
"u 	c #008FC4",
"v 	c #006287",
"w 	c #00131B",
"x 	c #9E9D97",
"y 	c #979691",
"z 	c #888782",
"A 	c #CAC9C2",
"B 	c #9A9993",
"C 	c #787873",
"D 	c #7A7A75",
"E 	c #9C9B95",
"F 	c #92918B",
"G 	c #A1A19A",
"H 	c #8F8E89",
"I 	c #999892",
"J 	c #91918B",
"K 	c #A2A19B",
"L 	c #0B2029",
"M 	c #206C8B",
"N 	c #2497C5",
"O 	c #1895C6",
"P 	c #0C92C5",
"Q 	c #028FC5",
"R 	c #007AA8",
"S 	c #002B3B",
"T 	c #E8E7DF",
"U 	c #E8E7DE",
"V 	c #0D1E26",
"W 	c #286983",
"X 	c #3197C0",
"Y 	c #279AC7",
"Z 	c #1B96C6",
"` 	c #0F93C5",
" .	c #0389BB",
"..	c #004C69",
"+.	c #000B10",
"@.	c #CBCAC2",
"#.	c #84837E",
"$.	c #ACABA5",
"%.	c #BFBEB7",
"&.	c #BAB9B2",
"*.	c #A4A49D",
"=.	c #C9C8C0",
"-.	c #EBEAE1",
";.	c #060C0F",
">.	c #295A6F",
",.	c #3F9AC0",
"'.	c #369DC8",
").	c #2A9AC7",
"!.	c #1D97C6",
"~.	c #1193C6",
"{.	c #057099",
"].	c #001D27",
"^.	c #D7D6CE",
"/.	c #ADACA6",
"(.	c #96958F",
"_.	c #A3A39C",
":.	c #A7A6A0",
"<.	c #AFAEA7",
"[.	c #91908B",
"}.	c #E4E3DA",
"|.	c #131312",
"1.	c #030607",
"2.	c #254756",
"3.	c #4996B8",
"4.	c #45A2C9",
"5.	c #389EC8",
"6.	c #2C9BC7",
"7.	c #2098C7",
"8.	c #1287B3",
"9.	c #053C51",
"0.	c #000203",
"a.	c #EDECE3",
"b.	c #E3E2DA",
"c.	c #908F8A",
"d.	c #1C1D1C",
"e.	c #1C3039",
"f.	c #4A85A0",
"g.	c #53A5C9",
"h.	c #47A3C9",
"i.	c #3B9FC8",
"j.	c #2F9CC8",
"k.	c #2296C4",
"l.	c #11698B",
"m.	c #021319",
"n.	c #DDDCD4",
"o.	c #898883",
"p.	c #9B9B95",
"q.	c #B0AFA8",
"r.	c #BCBBB4",
"s.	c #B1B0A9",
"t.	c #343432",
"u.	c #10181C",
"v.	c #497489",
"w.	c #60A6C7",
"x.	c #56A7CA",
"y.	c #49A3C9",
"z.	c #3EA0C8",
"A.	c #329CC8",
"B.	c #2390BC",
"C.	c #0C3E52",
"D.	c #010405",
"E.	c #DCDBD3",
"F.	c #B9B8B1",
"G.	c #A1A09A",
"H.	c #AFAFA8",
"I.	c #D5D4CC",
"J.	c #595955",
"K.	c #0B0F11",
"L.	c #415E6C",
"M.	c #6CA7C4",
"N.	c #64ABCB",
"O.	c #58A7CA",
"P.	c #4CA4C9",
"Q.	c #40A0C8",
"R.	c #339DC7",
"S.	c #1F7496",
"T.	c #05151C",
"U.	c #9F9E98",
"V.	c #212121",
"W.	c #28353D",
"X.	c #6D9AB1",
"Y.	c #73AECB",
"Z.	c #67ABCB",
"`.	c #5BA8CA",
" +	c #4FA5C9",
".+	c #43A1C9",
"++	c #359BC4",
"@+	c #1A5871",
"#+	c #02070A",
"$+	c #84847E",
"%+	c #ACACA5",
"&+	c #BABAB3",
"*+	c #A5A49E",
"=+	c #C8C7C0",
"-+	c #E9E8E0",
";+	c #6E6D69",
">+	c #0E1012",
",+	c #556F7D",
"'+	c #7FAFC8",
")+	c #76AFCC",
"!+	c #6AACCB",
"~+	c #5EA9CA",
"{+	c #51A5CA",
"]+	c #389BC3",
"^+	c #133E4F",
"/+	c #131515",
"(+	c #838383",
"_+	c #D6D5CD",
":+	c #ABAAA4",
"<+	c #93928D",
"[+	c #A5A59E",
"}+	c #ADADA6",
"|+	c #90908A",
"1+	c #81807B",
"2+	c #658192",
"3+	c #84B3CD",
"4+	c #78B0CC",
"5+	c #6CADCB",
"6+	c #60AACB",
"7+	c #54A6CA",
"8+	c #47A2C9",
"9+	c #358CB0",
"0+	c #0D2631",
"a+	c #191919",
"b+	c #242424",
"c+	c #171717",
"d+	c #454544",
"e+	c #C3CDD6",
"f+	c #BFCAD2",
"g+	c #666A6B",
"h+	c #2C2701",
"i+	c #121512",
"j+	c #4C6E7F",
"k+	c #6DAAC7",
"l+	c #62AACB",
"m+	c #4AA3C9",
"n+	c #3588AB",
"o+	c #0C1E25",
"p+	c #545350",
"q+	c #CCCBC3",
"r+	c #141414",
"s+	c #B0C0D0",
"t+	c #A5B4C3",
"u+	c #919EAC",
"v+	c #A5B5C4",
"w+	c #A4B3C2",
"x+	c #A8B7C6",
"y+	c #A9B9C8",
"z+	c #A8B8C7",
"A+	c #96A4B2",
"B+	c #4B5257",
"C+	c #786903",
"D+	c #F7DD00",
"E+	c #ACA100",
"F+	c #1B1B03",
"G+	c #233B47",
"H+	c #539CBC",
"I+	c #4DA4C9",
"J+	c #3A8EB1",
"K+	c #08171D",
"L+	c #60605C",
"M+	c #E7E6DD",
"N+	c #E7E6DE",
"O+	c #E9E8DF",
"P+	c #AFBECE",
"Q+	c #6A737D",
"R+	c #666F78",
"S+	c #5E6770",
"T+	c #8C99A6",
"U+	c #515860",
"V+	c #4E555C",
"W+	c #242729",
"X+	c #8C7900",
"Y+	c #E4CC00",
"Z+	c #E1D200",
"`+	c #FFF900",
" @	c #E6E100",
".@	c #534E00",
"+@	c #0A1519",
"@@	c #2C6983",
"#@	c #0C1E26",
"$@	c #474A4D",
"%@	c #E2E1D8",
"&@	c #878681",
"*@	c #686763",
"=@	c #8A8984",
"-@	c #95958F",
";@	c #8E8E88",
">@	c #92918C",
",@	c #B3C2D1",
"'@	c #B2C1D0",
")@	c #B3C2D0",
"!@	c #ACBBC9",
"~@	c #666F77",
"{@	c #726302",
"]@	c #C8B100",
"^@	c #A19600",
"/@	c #F5EE00",
"(@	c #FFFA00",
"_@	c #FFF100",
":@	c #F9E200",
"<@	c #7C6B00",
"[@	c #030404",
"}@	c #35393D",
"|@	c #ABB6BF",
"1@	c #E5E4DC",
"2@	c #C6C6BE",
"3@	c #D3D3CB",
"4@	c #D2D2CA",
"5@	c #454543",
"6@	c #E5E6E1",
"7@	c #C0C2BD",
"8@	c #453F12",
"9@	c #A59100",
"0@	c #BAAD00",
"a@	c #FDF500",
"b@	c #FFFB00",
"c@	c #FFF200",
"d@	c #FFE800",
"e@	c #EACC00",
"f@	c #463D0C",
"g@	c #94948F",
"h@	c #D4D5CF",
"i@	c #D6D7D1",
"j@	c #D8D7CE",
"k@	c #82817C",
"l@	c #8B8A85",
"m@	c #AAA9A3",
"n@	c #9B9A94",
"o@	c #BEBDB6",
"p@	c #3E3C30",
"q@	c #837400",
"r@	c #C2B400",
"s@	c #FFF600",
"t@	c #F5F100",
"u@	c #C1B900",
"v@	c #8A7E00",
"w@	c #564C02",
"x@	c #262416",
"y@	c #B2B1AA",
"z@	c #DCDCD3",
"A@	c #B3B2AC",
"B@	c #969690",
"C@	c #94938D",
"D@	c #8C8C86",
"E@	c #A09F99",
"F@	c #A1A19B",
"G@	c #7C7B76",
"H@	c #95948F",
"I@	c #C8C7BF",
"J@	c #DFDED5",
"K@	c #C4C3BC",
"L@	c #C6C5BE",
"M@	c #8E8D88",
"N@	c #342E01",
"O@	c #BDAF00",
"P@	c #F2E700",
"Q@	c #959301",
"R@	c #46451E",
"S@	c #696961",
"T@	c #B8B7B0",
"U@	c #CDCCC4",
"V@	c #D2D1C9",
"W@	c #C7C6BF",
"X@	c #EAE9E1",
"Y@	c #B9B9B1",
"Z@	c #B1B0AA",
"`@	c #CCCBC4",
" #	c #CAC9C1",
".#	c #CECEC6",
"+#	c #DDDDD4",
"@#	c #33322E",
"##	c #9E9100",
"$#	c #AEA500",
"%#	c #434116",
"&#	c #DFDED6",
"*#	c #C7C6BE",
"=#	c #CBCAC3",
"-#	c #D8D7CF",
";#	c #7A7975",
">#	c #A2A29B",
",#	c #5E5E5A",
"'#	c #4F4800",
")#	c #635D05",
"!#	c #66655F",
"~#	c #E0DFD7",
"{#	c #1F1F1E",
"]#	c #757470",
"^#	c #979690",
"/#	c #898983",
"(#	c #E1E0D7",
"_#	c #373415",
":#	c #524D00",
"<#	c #969590",
"[#	c #7B7A76",
"}#	c #DBDAD2",
"|#	c #C7C7BF",
"1#	c #C3C2BB",
"2#	c #D5D4CB",
"3#	c #5B5B50",
"4#	c #41402E",
"5#	c #E6E5DC",
"6#	c #ECEBE2",
"7#	c #A3A29C",
"8#	c #A6A59F",
"9#	c #989792",
"0#	c #B3B3AC",
"a#	c #A8A8A1",
"b#	c #A4A39D",
"c#	c #AFAEA8",
"d#	c #807F7A",
"e#	c #ACABA4",
"f#	c #8D8C87",
"g#	c #C2C2BA",
"h#	c #A7A7A0",
"i#	c #B0AFA9",
"j#	c #C5C4BC",
"k#	c #DEDDD5",
"l#	c #BDBCB4",
"m#	c #BCBCB4",
"n#	c #B6B6AF",
"o#	c #A9A8A2",
"p#	c #B4B4AD",
"q#	c #ABABA4",
"r#	c #B7B6AF",
"s#	c #201F1E",
"t#	c #6C6C68",
"u#	c #646460",
"v#	c #DAD9D1",
"w#	c #B1B1AA",
"x#	c #AEAEA7",
"y#	c #CDCDC5",
"z#	c #C5C4BD",
"A#	c #C1C1B9",
"B#	c #101010",
"C#	c #060606",
"D#	c #868580",
"E#	c #989791",
"F#	c #95948E",
"G#	c #4B4B4B",
"H#	c #111111",
"I#	c #1C1C1C",
"J#	c #BEBEB7",
"K#	c #E0DFD6",
"L#	c #82817D",
"M#	c #70706C",
"N#	c #6A6A66",
"O#	c #BBBAB3",
"P#	c #BDBDB5",
"Q#	c #767571",
"R#	c #8A8A85",
"S#	c #7F7F7A",
"T#	c #777772",
"U#	c #757570",
"V#	c #73736E",
"W#	c #7E7E79",
"X#	c #DBDAD1",
"Y#	c #E3E2D9",
"Z#	c #2B2B2A",
"`#	c #3D3D3B",
" $	c #403F3E",
".$	c #050505",
"                                                                                                ",
"  . + + + + + + + + + + + + + + + + + + + + + + @                                               ",
"  # $ % % % % % % % % % % % % % % % % % % % % % & *                                             ",
"  # = - - - - - - - - - - - - - - - - - - - - - ; > ,                                           ",
"  # = - - - - - - - - - - - - - - - - - - - - - ; > ,                             , ' ) ! ~     ",
"  # = - - - - - - - - - - - - - - - - - - - - - { > ,                         , ] ^ / ( _ :     ",
"  # = < [ [ [ [ [ [ [ [ [ [ [ [ [ [ [ [ [ [ [ [ } > ,                     | 1 2 3 4 5 6 7       ",
"  # = - - - - - - - - - - - - - - - - - - - - - 8 > ,                 9 0 a b 4 4 ( c d         ",
"  # = - - - e f g h i i j g k l m n o h i - - - { > ,             , p q r s t u v w ,           ",
"  # = - - - - x y z A B C D E F G H I J K - - - { > ,         ' L M N O P Q R S '               ",
"  # = - - - - - - - - - T U - - - - - - - - - - ; > ,     ' V W X Y Z `  ...+.,                 ",
"  # = - - - @.#.$.%.&.*.=.-.- - - - - - - - - - ; > , , ;.>.,.'.).!.~.{.].|                     ",
"  # = - - - ^./.(._.:.<.[.}.- - - - - - - - - - l |.1.2.3.4.5.6.7.8.9.0.                        ",
"  # = - - - a.a.- - - - - - - - - - - - - - b.c.d.e.f.g.h.i.j.k.l.m.,                           ",
"  # = - - - n.o.p.q.K r.- - - - - - - - - s.t.u.v.w.x.y.z.A.B.C.D.                              ",
"  # = - - - E.F.G.H.f n - - - - - - - I.J.K.L.M.N.O.P.Q.R.S.T.,                                 ",
"  # = - - - - - - - - - - - - - - -.U.V.W.X.Y.Z.`. +.+++@+#+                                    ",
"  # = - - - @.$+%+%.&+*+=+-.- - -+;+>+,+'+)+!+~+{+4.]+^+/+(+                                    ",
"  # = - - - _+:+<+K [+}+|+b.- - 1+, 2+3+4+5+6+7+8+9+0+, a+b+b+b+b+b+b+b+b+b+b+b+b+b+b+b+b+c+    ",
"  # d+e+e+e+e+e+e+e+e+e+e+e+e+f+g+h+i+j+k+l+x.m+n+o+p+q+o o o o o o o o o o o o o o o o o r+    ",
"  # d+s+s+s+t+u+v+w+x+y+z+z+A+B+C+D+E+F+G+H+I+J+K+L+M+- - N+N+- - -.O+- - - - - - - - - - > ,   ",
"  # d+s+s+s+P+Q+R+S+T+Q+U+V+W+X+Y+Z+`+ @.@+@@@#@$@%@- - - &@*@=@-@;@>@G.- - - - - - - - - > ,   ",
"  # d+,@,@,@,@'@,@'@)@,@!@~@{@]@^@/@(@_@:@<@[@}@|@1@- - - e I.l 2@g 3@4@- - - - - - - - - > ,   ",
"  # 5@6@6@6@6@6@6@6@6@6@7@8@9@0@a@b@c@d@e@f@g@h@i@1@- - - a.- - - - - - - - - - - - - - - > ,   ",
"  # = - - - j@k@l@m@n@o@p@q@r@s@t@u@v@w@x@y@- - z@1@- - - A@k@U.B@h C@|+c.D@E@F@G@H@B I@- > ,   ",
"  # = - - - J@K@o@s.L@M@N@O@P@Q@R@S@>@E@T@- - - z@1@- - - }.U@V@W@X@r.Y@Z@`@ #=..#@.h +#- > ,   ",
"  # = - - - - - - - }.@###$#%#o.&#- - - - - *#=#E.1@- - - - - - - - - - - - - - - - - - - > ,   ",
"  # = - - - -#;#&@>#,#'#)#!#~#- - - - - - - %+{#g 1@- - - f ]#^#K /#U@- - - - - - - - - - > ,   ",
"  # = - - - (#@.n :+_#:#<#-.- - - - - - - - Z@[#}#1@- - - I.|#<.1#&.2#- - - - - - - - - - > ,   ",
"  # = - - - - - - U 3#4#E.- - - - - - - - - 5#6#z@1@- - - - - - - - - - - - - - - - - - - > ,   ",
"  # = - - - E.l@7#8#k <._.G.9#*+0##.a#b#c#- - - E.1@- - - F.d#U.e#f#g#<+/.E@h#/.f#1+*.i#- > ,   ",
"  # = - - - - I@j#n k#o@G.*+1#l#m#o@o@k =+- - - e 1@- - - h K@n#0#%.`@q.f T@o#p#q#r#/.@.- > ,   ",
"  # = - - - - - - - - - - - - - - - - - - - - - z@1@- - - - - - - - - - - - - - - - - - - > ,   ",
"    s#t#t#t#t#t#t#t#t#t#t#t#t#t#t#t#t#t#t#t#t#t#u#v#- - - w#x#l y#z#A#v#- - - - - - - - - > ,   ",
"    , , , , , , , , , , , , , , , , , , , , , B#C#o - - - :+o.D#-@E#x F#- - - - - - - - - > ,   ",
"                                              G#H#o - - - - - - - - - - - - - - - - - - - > ,   ",
"                                                I#o - - - -#J#K#K#E.-.- - - - - - - - - - > ,   ",
"                                                I#o - - - p#L#M#o.N#O#- - - - - - - - - - > ,   ",
"                                                I#o - - - -.-.5#U 5#O+- - - - - - - - - - > ,   ",
"                                                I#o - - - E.}.6#6#a.a.- a.k#a.a.E.a.a.- - > ,   ",
"                                                I#o - - - P#Q#R#S#V@T#U#V#D#f#=@T#W#&@P#- > ,   ",
"                                                I#o - - - X@}.M+(#- X#^.g %@&#Y#8 Y#5#U - > ,   ",
"                                                I#o - - - - - - - - - - - - - - - - - - - > ,   ",
"                                                I#Z#`# $ $ $ $ $ $ $ $ $ $ $ $ $ $ $ $ $ $.$,   ",
"                                                  , , , , , , , , , , , , , , , , , , , , , |   ",
"                                                                                                ",
"                                                                                                ",
"                                                                                                "};
