/* XPM */
static const char * icon16_xpm[] = {
"16 16 99 2",
"  	c None",
". 	c #565655",
"+ 	c #5E5E5C",
"@ 	c #EEEDE4",
"# 	c #62615E",
"$ 	c #003A50",
"% 	c #E0DFD7",
"& 	c #D3D3CB",
"* 	c #D6D5CD",
"= 	c #D4D3CB",
"- 	c #D2D1C9",
"; 	c #DFDED6",
"> 	c #5F5F5B",
", 	c #075775",
"' 	c #00739E",
") 	c #003043",
"! 	c #C4C4BC",
"~ 	c #C2C1BA",
"{ 	c #C5C4BD",
"] 	c #D1D0C8",
"^ 	c #61605D",
"/ 	c #215E78",
"( 	c #198DBA",
"_ 	c #025271",
": 	c #C4C3BC",
"< 	c #E3E2D9",
"[ 	c #AEAEA8",
"} 	c #446370",
"| 	c #4096BA",
"1 	c #1F799D",
"2 	c #052937",
"3 	c #C7C6BE",
"4 	c #C7C6BF",
"5 	c #E9E8E0",
"6 	c #6F797B",
"7 	c #5C90A8",
"8 	c #4FA4C9",
"9 	c #28637B",
"0 	c #5E5E5D",
"a 	c #CBD3D9",
"b 	c #B1B9BE",
"c 	c #B0B8BE",
"d 	c #BBC3C8",
"e 	c #7F7C54",
"f 	c #58736C",
"g 	c #55A3C6",
"h 	c #456875",
"i 	c #9A9994",
"j 	c #9F9E99",
"k 	c #A09F9A",
"l 	c #C3CED6",
"m 	c #B2BCC3",
"n 	c #AEB7BD",
"o 	c #707054",
"p 	c #D2C500",
"q 	c #E6D800",
"r 	c #4B5345",
"s 	c #CECFCA",
"t 	c #E1E0D7",
"u 	c #C0BFB8",
"v 	c #C7C7BF",
"w 	c #0E0E0E",
"x 	c #C9C8C0",
"y 	c #ACABA4",
"z 	c #8D8308",
"A 	c #B4B14E",
"B 	c #A3A083",
"C 	c #E5E4DC",
"D 	c #E6E5DD",
"E 	c #CBCAC2",
"F 	c #C1C1B9",
"G 	c #C3C3BB",
"H 	c #DCDBD2",
"I 	c #737057",
"J 	c #C2C0AF",
"K 	c #BBBAB3",
"L 	c #E4E3DA",
"M 	c #E5E4DB",
"N 	c #BEBEB6",
"O 	c #D6D6CD",
"P 	c #D0CFC7",
"Q 	c #CCCBC4",
"R 	c #BEBDB6",
"S 	c #C3C2BB",
"T 	c #C8C7C0",
"U 	c #BCBBB4",
"V 	c #323230",
"W 	c #383836",
"X 	c #A3A29C",
"Y 	c #E0DFD6",
"Z 	c #BFBEB7",
"` 	c #C6C5BE",
" .	c #9D9D97",
"..	c #CBCAC3",
"+.	c #C4C3BB",
"@.	c #DBDBD2",
"#.	c #51514E",
"$.	c #72726E",
"%.	c #060606",
"  . . . . . . .                 ",
"+ @ @ @ @ @ @ @ #           $   ",
"+ % & * = - * ; >       , ' )   ",
"+ @ ! ~ { ] - @ ^   / ( _       ",
"+ @ : ~ < @ @ [ } | 1 2         ",
"+ @ 3 4 5 ; 6 7 8 9             ",
"0 a b c d e f g h i j j k k k   ",
"0 l m n o p q r s t u v @ @ @ w ",
"+ @ x y z A B ; C D : E F G H w ",
"+ @ 4 I J @ @ K L M N O @ @ @ w ",
"+ @ P Q R S T @ C M u : ~ U = w ",
"  V V V V V V W X Y Z ` @ @ @ w ",
"                 .M N * @ @ @ w ",
"                 .D ! ..~ +.@.w ",
"                #.$.$.$.$.$.$.%.",
"                                "};
