/* XPM */
static const char * icon32_xpm[] = {
"32 32 206 2",
"  	c None",
". 	c #6D6D6D",
"+ 	c #A3A3A3",
"@ 	c #000000",
"# 	c #BDBCBB",
"$ 	c #B1B0AE",
"% 	c #989795",
"& 	c #B7B6B5",
"* 	c #AAA9A8",
"= 	c #91908F",
"- 	c #363636",
"; 	c #393838",
"> 	c #2C2C2B",
", 	c #635D6B",
"' 	c #8B8195",
") 	c #8A8095",
"! 	c #7E7587",
"~ 	c #665F6D",
"{ 	c #887E93",
"] 	c #897F93",
"^ 	c #766C7F",
"/ 	c #756B7E",
"( 	c #4F4955",
"_ 	c #0A0A0A",
": 	c #423D47",
"< 	c #706779",
"[ 	c #746A7D",
"} 	c #564E5F",
"| 	c #72697B",
"1 	c #4B4551",
"2 	c #343434",
"3 	c #111111",
"4 	c #332F37",
"5 	c #6C6375",
"6 	c #72687B",
"7 	c #473F4E",
"8 	c #716779",
"9 	c #47414C",
"0 	c #888888",
"a 	c #3A3A3A",
"b 	c #1E1E1E",
"c 	c #3D3841",
"d 	c #6B6274",
"e 	c #73697C",
"f 	c #6F6578",
"g 	c #443E48",
"h 	c #ABABAB",
"i 	c #808080",
"j 	c #525252",
"k 	c #242424",
"l 	c #322E35",
"m 	c #665D6F",
"n 	c #453E4D",
"o 	c #423B49",
"p 	c #29252D",
"q 	c #C6C6C6",
"r 	c #585858",
"s 	c #686868",
"t 	c #1F1F1F",
"u 	c #2F2B33",
"v 	c #413A48",
"w 	c #463F4E",
"x 	c #37303E",
"y 	c #515151",
"z 	c #4D4D4D",
"A 	c #2F2F2F",
"B 	c #A9A9A9",
"C 	c #F5F5F5",
"D 	c #717171",
"E 	c #777777",
"F 	c #555555",
"G 	c #131313",
"H 	c #060606",
"I 	c #474747",
"J 	c #4E4E4E",
"K 	c #D0CFCE",
"L 	c #CECDCC",
"M 	c #C3C3C2",
"N 	c #727272",
"O 	c #A7A7A7",
"P 	c #FBFBFB",
"Q 	c #B8B8B8",
"R 	c #6B6B6B",
"S 	c #5F5F5F",
"T 	c #3B3B3B",
"U 	c #6F6E6E",
"V 	c #BEBEBD",
"W 	c #CCCBCA",
"X 	c #CFCECE",
"Y 	c #BBBAB9",
"Z 	c #B2B1B0",
"` 	c #686867",
" .	c #A4A4A4",
"..	c #F9F9F9",
"+.	c #FAFAFA",
"@.	c #5E5E5E",
"#.	c #5A5A5A",
"$.	c #535353",
"%.	c #323232",
"&.	c #121212",
"*.	c #4D4C4C",
"=.	c #ADACAC",
"-.	c #B8B7B6",
";.	c #9E9E9E",
">.	c #F6F6F6",
",.	c #A0A0A0",
"'.	c #404040",
").	c #9B9A99",
"!.	c #B0AFAE",
"~.	c #9C9C9C",
"{.	c #ECECEC",
"].	c #6A6A6A",
"^.	c #414141",
"/.	c #0B0B0B",
"(.	c #4F4F4E",
"_.	c #858483",
":.	c #A5A4A3",
"<.	c #BCBBBA",
"[.	c #A1A1A1",
"}.	c #F3F3F3",
"|.	c #F1F1F1",
"1.	c #919191",
"2.	c #C7C7C7",
"3.	c #252525",
"4.	c #0F0F0F",
"5.	c #2A2A2A",
"6.	c #4E4D4D",
"7.	c #828180",
"8.	c #A3A2A1",
"9.	c #727170",
"0.	c #595857",
"a.	c #585756",
"b.	c #545352",
"c.	c #6C6C6C",
"d.	c #080808",
"e.	c #AAAAAA",
"f.	c #141414",
"g.	c #1D1D1C",
"h.	c #2F2F2E",
"i.	c #444342",
"j.	c #504F4E",
"k.	c #575655",
"l.	c #585856",
"m.	c #A2A2A2",
"n.	c #9A9A9A",
"o.	c #5B5B5B",
"p.	c #272727",
"q.	c #171717",
"r.	c #101010",
"s.	c #AFAFAF",
"t.	c #262626",
"u.	c #757575",
"v.	c #949494",
"w.	c #B3B2B1",
"x.	c #939291",
"y.	c #696868",
"z.	c #3A3939",
"A.	c #373736",
"B.	c #B2B2B2",
"C.	c #818181",
"D.	c #212121",
"E.	c #7A7979",
"F.	c #ABAAAA",
"G.	c #B5B4B4",
"H.	c #9D9C9C",
"I.	c #807F7E",
"J.	c #686766",
"K.	c #626261",
"L.	c #424241",
"M.	c #595959",
"N.	c #BDBDBD",
"O.	c #585857",
"P.	c #B5B4B3",
"Q.	c #B9B8B7",
"R.	c #AEADAC",
"S.	c #A1A1A0",
"T.	c #9A9998",
"U.	c #9B9B9A",
"V.	c #929291",
"W.	c #747473",
"X.	c #1B1B1B",
"Y.	c #747474",
"Z.	c #565656",
"`.	c #1C1C1C",
" +	c #919190",
".+	c #ADADAC",
"++	c #B4B3B2",
"@+	c #A8A7A7",
"#+	c #8D8C8C",
"$+	c #454444",
"%+	c #212020",
"&+	c #474646",
"*+	c #858584",
"=+	c #A7A6A6",
"-+	c #A9A8A7",
";+	c #A8A7A6",
">+	c #6A6A69",
",+	c #484747",
"'+	c #4D4D4C",
")+	c #7A7978",
"!+	c #979695",
"~+	c #A6A5A4",
"{+	c #2B2B2A",
"]+	c #282727",
"^+	c #181717",
"/+	c #282827",
"                                                                ",
"                                                                ",
"                                                                ",
"      . + + + + + + + + + + + + + + + + + + + + + + + + @       ",
"      + # # # # # # # # # # # # # # # # # # # # # # # $ @       ",
"      + # # # # # # # # # # # # # # # # # # # # # # # % @       ",
"      + # # # # # # # # # # # # # # # # # # # # # # # % @       ",
"      + # # # # # # # # # # # # # # # # # # # # # # # % @       ",
"      + & * * * * * * * * * * * * * * * * * * * * * * = @       ",
"      - ; > > > > > > > > > > > > > > > > > > > > > > > @       ",
"      , ' ' ' ) ! ~ { ] ) ' ' ' ' ' ' ' ' ' ' ' ' ' ' ' @       ",
"      , ^ ^ ^ / ( _ : < [ ^ ^ ^ ^ ^ ^ ^ ^ ^ ^ ^ ^ ^ ^ } @       ",
"      , ^ ^ ^ | 1 2 3 4 5 6 ^ ^ ^ ^ ^ ^ ^ ^ ^ ^ ^ ^ ^ 7 @       ",
"      , ^ ^ / 8 9 0 a b c d e ^ ^ ^ ^ ^ ^ ^ ^ ^ ^ ^ ^ 7 @       ",
"      , ^ ^ [ f g h i j k l d 6 ^ ^ ^ ^ ^ ^ ^ ^ ^ ^ ^ 7 @       ",
"      , m 7 n o p h q r s t u v n w 7 7 7 7 7 7 7 7 7 x @       ",
"      - j j y z A B C D E F G H I J y j j j j j j j j j @       ",
"      + K K L M N O P Q R S T G U V W X K K K K K K K K @       ",
"      + # # Y Z `  ...+.@.#.$.%.&.*.=.-.# # # # # # # % @       ",
"      + # # Y Z ` ;.>...,.F #.'.&._ ).!.Y # # # # # # % @       ",
"      + # # Y Z ` ~.>.C {.].^./.b (._.:.-.<.# # # # # % @       ",
"      + # # Y Z ` [.}.|.1.2.3.4.5.6.7.8.-.<.# # # # # % @       ",
"      . 9.0.a.b.%.c.].d.d.e.#.f.g.h.i.j.k.l.0.0.0.0.0.0.@       ",
"      . + + m.n.o._ p.q.r.'.s.t.3.u.v.;.+ + + + + + + + @       ",
"      + # # Y w.x.y.^.z.A.q.B.C.D.E.F.-.# # # # # # # $ @       ",
"      + # # <.G.H.I.` J.K.L.M.N.'.O.8.P.# # # # # # # % @       ",
"      + # # <.Q.R.S.T.U.V.W.X.Y.Z.`. +.+Y # # # # # # % @       ",
"      + # # # <.-.++Z Z @+#+$+_ %+&+*+=+Q.# # # # # # % @       ",
"      + & * * * * -+-+;+8.x.>+,+; '+)+!+~+* * * * * * = @       ",
"      - ; > > > > > > > {+]+t q.G ^+D./+{+> > > > > > > @       ",
"                                                                ",
"                                                                "};
