/* XPM */
static const char * icon32_xpm[] = {
"32 32 272 2",
"  	c None",
". 	c #0A0A0A",
"+ 	c #040404",
"@ 	c #000000",
"# 	c #10100F",
"$ 	c #E4E4DB",
"% 	c #868580",
"& 	c #101010",
"* 	c #EEEDE4",
"= 	c #8B8A85",
"- 	c #D4D3CB",
"; 	c #D0CFC7",
"> 	c #82827D",
", 	c #D9D8D0",
"' 	c #D5D4CC",
") 	c #DAD9D0",
"! 	c #DFDED6",
"~ 	c #DEDDD5",
"{ 	c #D0D0C8",
"] 	c #DAD9D1",
"^ 	c #CDCCC4",
"/ 	c #D8D7CF",
"( 	c #DFDED5",
"_ 	c #D7D7CE",
": 	c #BAB9B2",
"< 	c #B1B0A9",
"[ 	c #C9C8C0",
"} 	c #A4A49E",
"| 	c #A6A69F",
"1 	c #BBBBB3",
"2 	c #ABAAA4",
"3 	c #AEADA6",
"4 	c #BEBDB6",
"5 	c #C9C8C1",
"6 	c #A9A9A2",
"7 	c #A2A29C",
"8 	c #BEBEB6",
"9 	c #DCDBD3",
"0 	c #D1D0C8",
"a 	c #242412",
"b 	c #616100",
"c 	c #1A1A15",
"d 	c #232318",
"e 	c #3C3C36",
"f 	c #464643",
"g 	c #666662",
"h 	c #9B9B95",
"i 	c #C8C7C0",
"j 	c #282812",
"k 	c #848400",
"l 	c #BABA00",
"m 	c #FEFE00",
"n 	c #FFFF00",
"o 	c #F2F200",
"p 	c #CECE00",
"q 	c #363600",
"r 	c #DBDAD2",
"s 	c #DCDBD2",
"t 	c #B9B8B1",
"u 	c #33321F",
"v 	c #EDE400",
"w 	c #B3B100",
"x 	c #E0E000",
"y 	c #929200",
"z 	c #74736F",
"A 	c #C4C3BC",
"B 	c #B7B6AF",
"C 	c #6E6D69",
"D 	c #968400",
"E 	c #FFE900",
"F 	c #D1C700",
"G 	c #C8C700",
"H 	c #F9F900",
"I 	c #1C1C00",
"J 	c #272726",
"K 	c #E5E4DB",
"L 	c #878782",
"M 	c #111111",
"N 	c #E6E7E1",
"O 	c #CACBC7",
"P 	c #B0B2AE",
"Q 	c #AFB0AD",
"R 	c #322F1A",
"S 	c #F3CC00",
"T 	c #FFDD00",
"U 	c #FFF600",
"V 	c #B9B800",
"W 	c #181D1F",
"X 	c #38444B",
"Y 	c #464543",
"Z 	c #80817D",
"` 	c #393937",
" .	c #3D3C3A",
"..	c #020202",
"+.	c #161616",
"@.	c #B0C0D0",
"#.	c #A4B3C2",
"$.	c #A8B8C7",
"%.	c #75808B",
"&.	c #6A5900",
"*.	c #FFD600",
"=.	c #FFD700",
"-.	c #F2D300",
";.	c #201E01",
">.	c #738C9C",
",.	c #91B5CA",
"'.	c #303E46",
").	c #262625",
"!.	c #EBEAE1",
"~.	c #EAE9E1",
"{.	c #090909",
"].	c #9CAAB8",
"^.	c #838F9B",
"/.	c #7C8793",
"(.	c #909DAA",
"_.	c #383C40",
":.	c #2B2815",
"<.	c #2E2F29",
"[.	c #201C04",
"}.	c #3A474F",
"|.	c #93B8CE",
"1.	c #8DB6CD",
"2.	c #87B3CC",
"3.	c #3E5562",
"4.	c #212120",
"5.	c #B8B8B1",
"6.	c #8A8984",
"7.	c #989892",
"8.	c #8F8E89",
"9.	c #B3B2AC",
"0.	c #121212",
"a.	c #D6DBDC",
"b.	c #D5DADB",
"c.	c #D4DADA",
"d.	c #CCD1D2",
"e.	c #444441",
"f.	c #0B0C0C",
"g.	c #36464F",
"h.	c #79A2B9",
"i.	c #81B2CD",
"j.	c #7BB1CC",
"k.	c #4C7184",
"l.	c #0D1012",
"m.	c #878681",
"n.	c #EDECE3",
"o.	c #BABAB3",
"p.	c #8D8C87",
"q.	c #A3A29C",
"r.	c #90908A",
"s.	c #93928D",
"t.	c #989791",
"u.	c #72716D",
"v.	c #353533",
"w.	c #0E1213",
"x.	c #527789",
"y.	c #74AFCC",
"z.	c #6FAECB",
"A.	c #5B95B0",
"B.	c #16262D",
"C.	c #888883",
"D.	c #C3C2BB",
"E.	c #969590",
"F.	c #A4A39D",
"G.	c #BCBBB4",
"H.	c #0F0F0F",
"I.	c #2D4652",
"J.	c #67A9C8",
"K.	c #63AACB",
"L.	c #5CA6C7",
"M.	c #2B5263",
"N.	c #151615",
"O.	c #A6A59F",
"P.	c #EAEAE1",
"Q.	c #85847F",
"R.	c #96958F",
"S.	c #373735",
"T.	c #383735",
"U.	c #1C313A",
"V.	c #58A0C0",
"W.	c #56A7CA",
"X.	c #51A5CA",
"Y.	c #3A7D9A",
"Z.	c #09151A",
"`.	c #656561",
" +	c #E8E7DE",
".+	c #B4B4AD",
"++	c #5F5F5B",
"@+	c #112128",
"#+	c #4997B9",
"$+	c #4AA3C9",
"%+	c #45A2C9",
"&+	c #3B96BC",
"*+	c #123240",
"=+	c #31312F",
"-+	c #C2C1BA",
";+	c #A1A09A",
">+	c #9C9B95",
",+	c #9B9A94",
"'+	c #A7A6A0",
")+	c #979690",
"!+	c #AFAEA7",
"~+	c #B8B7B0",
"{+	c #747470",
"]+	c #0C1A20",
"^+	c #3C90B3",
"/+	c #3EA0C8",
"(+	c #389EC8",
"_+	c #339CC7",
":+	c #19566F",
"<+	c #151616",
"[+	c #7A7974",
"}+	c #8F8F89",
"|+	c #E4E3DA",
"1+	c #E7E6DD",
"2+	c #EAE9E0",
"3+	c #82817C",
"4+	c #08151A",
"5+	c #2F87AB",
"6+	c #329CC8",
"7+	c #2C9BC7",
"8+	c #2699C7",
"9+	c #156281",
"0+	c #141616",
"a+	c #C8C7BF",
"b+	c #030303",
"c+	c #2A2A29",
"d+	c #52524E",
"e+	c #BDBCB5",
"f+	c #484846",
"g+	c #050E12",
"h+	c #227CA0",
"i+	c #2599C7",
"j+	c #2098C6",
"k+	c #1A96C6",
"l+	c #0C5A78",
"m+	c #30302E",
"n+	c #E6E5DD",
"o+	c #DADAD1",
"p+	c #9D9C96",
"q+	c #0A1012",
"r+	c #156585",
"s+	c #1996C6",
"t+	c #1494C6",
"u+	c #0E92C5",
"v+	c #011218",
"w+	c #3E3E3C",
"x+	c #D6D5CD",
"y+	c #AAA9A3",
"z+	c #858580",
"A+	c #222221",
"B+	c #073A4E",
"C+	c #0B85B4",
"D+	c #0788B9",
"E+	c #010D12",
"F+	c #E1E0D8",
"G+	c #CBCAC2",
"H+	c #C7C6BE",
"I+	c #E2E1D9",
"J+	c #090B0B",
"K+	c #020708",
"L+	c #C5C4BD",
"M+	c #CBCAC3",
"N+	c #CAC9C1",
"O+	c #C0BFB8",
"P+	c #B0B0A9",
"Q+	c #B2B2AB",
"R+	c #C6C5BD",
"S+	c #C1C0B9",
"T+	c #C7C6BF",
"U+	c #323230",
"V+	c #070707",
"W+	c #010101",
"                                                                ",
"  . . . . . . . . . . . . . . . + @                             ",
"  # $ $ $ $ $ $ $ $ $ $ $ $ $ $ % @                             ",
"  & * * * * * * * * * * * * * * = @                             ",
"  & - ; ; ; ; ; ; ; ; ; ; ; ; ; > @                             ",
"  & * * , ' ) ! ~ { ] ^ / ( * * = @                             ",
"  & * * _ : < [ } | 1 2 3 4 * * = @                             ",
"  & * * 5 6 7 8 9 * * * * * * * = @                             ",
"  & * * 0 a b c d e f g h * * * = @                             ",
"  & * * i j k l m n o p q r * * = @                             ",
"  & * * s t u v w x n n y z A * = @                             ",
"  & * * 5 B C D E F G n H I J K L @                             ",
"  M N N O P Q R S T E U V W X Y Z `  . . . . . . . . . . . ...  ",
"  +.@.@.#.#.$.%.&.*.=.-.;.>.,.'.).s * !.!.* ~.* * * * * * * {.  ",
"  +.@.@.].^./.(._.:.<.[.}.|.1.2.3.4.A 5.6.7.8.9.* * * * * * {.  ",
"  0.a.a.a.a.a.a.b.c.d.e.f.g.h.i.j.k.l.m.n.* * * * * * * * * {.  ",
"  & * * o.p.q.| r.s.t.r.u.v.w.x.y.z.A.B.v.C.D.8.m.| E.h F.* {.  ",
"  & * * * * * * * * * * * * G.H.I.J.K.L.M.N.O.P.P.* * * * * {.  ",
"  & * * G.Q.R.q.* * * * * * * S.T.U.V.W.X.Y.Z.`. +* * * * * {.  ",
"  & * * * * * * * * * * * * * 0 .+++@+#+$+%+&+*+=+; * * * * {.  ",
"  & * * -+;+>+t ,+p.'+6.)+!+* * ~+* {+]+^+/+(+_+:+<+m.[+}+|+{.  ",
"  & * * * * * * 1+2+* * * * * * ~+* * 3+4+5+6+7+8+9+0+a+* * {.  ",
"  b+c+c+c+c+c+c+c+c+c+c+c+c+c+c+d+* * e+f+g+h+i+j+k+l+m+* * {.  ",
"    @ @ @ @ @ @ @ @ @ @ @ @ @ M  .* * n+o+p+q+r+s+t+u+v+i * {.  ",
"                                w+* * x+y+: z+A+B+C+D+E+; * {.  ",
"                                w+* * F+G+G+H+I+`.J+K+C * * {.  ",
"                                w+* * / L+M+] N+O+G+t 5 G+* {.  ",
"                                w+* * K A e+/ P+Q+R+S+O+T+* {.  ",
"                                U+S+-+-+-+-+-+-+-+-+-+-+-+-+V+  ",
"                                W+@ @ @ @ @ @ @ @ @ @ @ @ @ @   ",
"                                                                ",
"                                                                "};
