/* XPM */
static const char * icon16_xpm[] = {
"16 16 106 2",
"  	c None",
". 	c #282828",
"+ 	c #2D2D2C",
"@ 	c #E9E8E0",
"# 	c #4C4C49",
"$ 	c #2D2D2D",
"% 	c #E0DFD7",
"& 	c #D3D3CB",
"* 	c #D6D5CD",
"= 	c #D4D3CB",
"- 	c #D2D1C9",
"; 	c #DFDED6",
"> 	c #4B4B48",
", 	c #EEEDE4",
"' 	c #C1C0B9",
") 	c #B6B6AF",
"! 	c #C5C4BD",
"~ 	c #D1D0C8",
"{ 	c #4E4D4A",
"] 	c #79796B",
"^ 	c #6E6E05",
"/ 	c #979713",
"( 	c #9B9B29",
"_ 	c #A7A693",
": 	c #898222",
"< 	c #D9D000",
"[ 	c #F1F100",
"} 	c #87871C",
"| 	c #B0AFA8",
"1 	c #2F3030",
"2 	c #CBD3D9",
"3 	c #B1B9BE",
"4 	c #808686",
"5 	c #D7B600",
"6 	c #FCE200",
"7 	c #59602F",
"8 	c #505F67",
"9 	c #6F6E6B",
"0 	c #95948F",
"a 	c #94948E",
"b 	c #95958F",
"c 	c #050505",
"d 	c #303030",
"e 	c #C3CED6",
"f 	c #B2BCC3",
"g 	c #AEB7BD",
"h 	c #838683",
"i 	c #575850",
"j 	c #43545E",
"k 	c #84B0C8",
"l 	c #4A6674",
"m 	c #848480",
"n 	c #BFBFB7",
"o 	c #C7C7BF",
"p 	c #070707",
"q 	c #C9C8C0",
"r 	c #C9C8C1",
"s 	c #C0BFB8",
"t 	c #A1A09A",
"u 	c #4B5558",
"v 	c #5E93AC",
"w 	c #4C839C",
"x 	c #3F494C",
"y 	c #B9B8B1",
"z 	c #C1C1B9",
"A 	c #C3C3BB",
"B 	c #DCDBD2",
"C 	c #C7C6BF",
"D 	c #5A5F5E",
"E 	c #42809B",
"F 	c #469ABD",
"G 	c #2F505D",
"H 	c #B6B5AE",
"I 	c #D0CFC7",
"J 	c #CCCBC4",
"K 	c #BEBDB6",
"L 	c #C3C2BB",
"M 	c #C8C7C0",
"N 	c #D3D2CA",
"O 	c #7C7F7C",
"P 	c #2C7390",
"Q 	c #329CC8",
"R 	c #1A5A73",
"S 	c #777773",
"T 	c #1C1C1B",
"U 	c #1F1F1D",
"V 	c #9B9A94",
"W 	c #E0DFD6",
"X 	c #717370",
"Y 	c #19637F",
"Z 	c #1A96C6",
"` 	c #134C61",
" .	c #E4E3DB",
"..	c #969590",
"+.	c #E5E4DB",
"@.	c #BEBEB6",
"#.	c #94938E",
"$.	c #204C5B",
"%.	c #1E424F",
"&.	c #E6E5DD",
"*.	c #C4C4BC",
"=.	c #CBCAC3",
"-.	c #DBDBD2",
";.	c #41413F",
">.	c #676663",
",.	c #030303",
"  . . . . . . .                 ",
"+ @ @ @ @ @ @ @ #               ",
"$ % & * = - * ; >               ",
"$ , ' ) ! ~ - , {               ",
"$ , ] ^ / ( _ , {               ",
"$ , ! : < [ } | >               ",
"1 2 3 4 5 6 7 8 9 0 0 a b b b c ",
"d e f g h i j k l m n o , , , p ",
"$ , q r s ' t u v w x y z A B p ",
"$ , C ! , , , y D E F G H , , p ",
"$ , I J K L M , N O P Q R S = p ",
"  T T T T T T U V W X Y Z `  .p ",
"                ..+.@.#.$.%.&.p ",
"                ..&.*.=.' ' -.p ",
"                ;.>.>.>.>.>.>.,.",
"                                "};
