/* XPM */
static const char * icon24_xpm[] = {
"24 24 178 2",
"  	c None",
". 	c #575653",
"+ 	c #868680",
"@ 	c #484845",
"# 	c #9A9993",
"$ 	c #EEEDE4",
"% 	c #7F7F7A",
"& 	c #00141C",
"* 	c #003E56",
"= 	c #002331",
"- 	c #91908A",
"; 	c #D8D7CE",
"> 	c #D7D7CE",
", 	c #7A7A75",
"' 	c #052734",
") 	c #025F82",
"! 	c #0089BD",
"~ 	c #004965",
"{ 	c #C7C6BF",
"] 	c #B0B0A9",
"^ 	c #C3C2BB",
"/ 	c #A6A59F",
"( 	c #AFAFA8",
"_ 	c #ACACA5",
": 	c #B3B2AB",
"< 	c #D4D4CC",
"[ 	c #0D2A36",
"} 	c #176D90",
"| 	c #0B91C4",
"1 	c #00719B",
"2 	c #002432",
"3 	c #CBCAC2",
"4 	c #D2D1C9",
"5 	c #CFCEC6",
"6 	c #E1E0D7",
"7 	c #000000",
"8 	c #0F2129",
"9 	c #2A708C",
"0 	c #2898C5",
"a 	c #108BBB",
"b 	c #013F57",
"c 	c #C5C4BD",
"d 	c #CCCBC4",
"e 	c #D4D3CB",
"f 	c #474C4C",
"g 	c #315E71",
"h 	c #449EC4",
"i 	c #2D9BC7",
"j 	c #116788",
"k 	c #02161E",
"l 	c #BFBEB7",
"m 	c #A7A6A0",
"n 	c #B2B1AA",
"o 	c #E8E7DE",
"p 	c #81817D",
"q 	c #3C5460",
"r 	c #599BB9",
"s 	c #4BA4C9",
"t 	c #3093BB",
"u 	c #0E3D50",
"v 	c #E4E3DA",
"w 	c #CCCBC3",
"x 	c #495052",
"y 	c #638BA0",
"z 	c #68ACCB",
"A 	c #50A5CA",
"B 	c #3185A8",
"C 	c #22363E",
"D 	c #8F9190",
"E 	c #D8DDDD",
"F 	c #C2C6C7",
"G 	c #AEB3B5",
"H 	c #B6BBBC",
"I 	c #BEC3C4",
"J 	c #D7DCDC",
"K 	c #45443A",
"L 	c #526E7C",
"M 	c #6DACCA",
"N 	c #55A6CA",
"O 	c #2F7592",
"P 	c #4B5151",
"Q 	c #767672",
"R 	c #797874",
"S 	c #7A838A",
"T 	c #B0C0D0",
"U 	c #94A1AE",
"V 	c #838F9B",
"W 	c #929FAC",
"X 	c #7C8792",
"Y 	c #64664C",
"Z 	c #CDB901",
"` 	c #ABA501",
" .	c #354E47",
"..	c #2F6E89",
"+.	c #646867",
"@.	c #ECEBE2",
"#.	c #D2D2CA",
"$.	c #C2C2BA",
"%.	c #83837E",
"&.	c #898D8E",
"*.	c #CCD4D9",
"=.	c #868B84",
"-.	c #A69401",
";.	c #E5DD00",
">.	c #FFF100",
",.	c #A99503",
"'.	c #686A68",
").	c #D3D5D2",
"!.	c #EAE9E0",
"~.	c #E0DFD7",
"{.	c #DDDCD4",
"].	c #E0E0D7",
"^.	c #A9A8A2",
"/.	c #ABAAA4",
"(.	c #6D630C",
"_.	c #D2C900",
":.	c #999620",
"<.	c #847F4A",
"[.	c #9F9E95",
"}.	c #DDDCD3",
"|.	c #B0AFA8",
"1.	c #C7C6BE",
"2.	c #A6A69F",
"3.	c #B5B4AD",
"4.	c #AAAAA3",
"5.	c #C4C4BC",
"6.	c #CBCBC3",
"7.	c #C1C0B9",
"8.	c #716F58",
"9.	c #857E19",
"0.	c #A6A595",
"a.	c #979791",
"b.	c #DEDDD5",
"c.	c #E0DFD6",
"d.	c #BAB9B2",
"e.	c #C2C1BA",
"f.	c #E6E5DC",
"g.	c #E2E1D8",
"h.	c #CDCCC4",
"i.	c #494725",
"j.	c #D3D2CA",
"k.	c #D6D5CD",
"l.	c #B0AFA9",
"m.	c #A3A29C",
"n.	c #AFAEA8",
"o.	c #B2B2AB",
"p.	c #D5D4CC",
"q.	c #DAD9D1",
"r.	c #ABAAA3",
"s.	c #B4B4AD",
"t.	c #AFAEA7",
"u.	c #ADACA5",
"v.	c #9C9B95",
"w.	c #B3B2AC",
"x.	c #706F6B",
"y.	c #ADADA6",
"z.	c #C0BFB8",
"A.	c #DFDED5",
"B.	c #D7D6CE",
"C.	c #DCDBD2",
"D.	c #151515",
"E.	c #6C6C68",
"F.	c #BBBAB3",
"G.	c #C4C3BB",
"H.	c #757470",
"I.	c #A4A39D",
"J.	c #ACABA4",
"K.	c #757471",
"L.	c #E9E8DF",
"M.	c #ECEBE3",
"N.	c #E1E0D8",
"O.	c #C8C7BF",
"P.	c #A7A7A0",
"Q.	c #B6B5AF",
"R.	c #4C4C4A",
"S.	c #969690",
"T.	c #979691",
"U.	c #535350",
"                                                ",
"  . + + + + + + + + + + @                       ",
"  # $ $ $ $ $ $ $ $ $ $ %               & * =   ",
"  - ; ; > ; ; > ; ; > ; ,           ' ) ! ~     ",
"  # $ { ] ^ / ( _ : < $ %       [ } | 1 2       ",
"  # $ 3 4 5 6 $ $ $ $ $ % 7 8 9 0 a b           ",
"  # $ ; c d e $ $ $ $ e f g h i j k             ",
"  # $ l m n $ $ $ o p q r s t u                 ",
"  # $ 3 4 5 v $ w x y z A B C                   ",
"  D E F G H I J K L M N O P Q R R R R R R R @   ",
"  S T U V W X Y Z `  ...+.@.#.n l $.$ $ $ $ %.  ",
"  &.*.*.*.*.=.-.;.>.,.'.).$ !.~.{.].$ $ $ $ %.  ",
"  # $ l ^./.(._.:.<.[.$ 6 $ }.|.1./ 2.3.4.5.%.  ",
"  # $ 6.7.8.9.0.!.$ $ a.b.$ c.d.e.f.$ $ $ $ %.  ",
"  # $ g.h.i.j.$ $ $ $ l ~.$ o < k.o $ $ $ $ %.  ",
"  # $ { l.^ m.n._ o.p.$ 6 $ q.2.r.s.t.u.v.w.%.  ",
"  x.y.y.y.y.y.y.y.y.y.y.z.$ A.B.C.b.$ $ $ $ %.  ",
"    7 7 7 7 7 7 7 7 7 D.E.$ {.F.e.G.$ $ $ $ %.  ",
"                        H.$ q.I.J.6 $ $ $ $ %.  ",
"                        K.$ L.o !.M.!.$ L.$ %.  ",
"                        K.$ N.: O.P./.Q.( 5.%.  ",
"                        R.S.T.T.T.T.T.T.T.T.U.  ",
"                                                ",
"                                                "};
