/* XPM */
static const char * icon48_xpm[] = {
"48 48 225 2",
"  	c None",
". 	c #000000",
"+ 	c #F5F5F5",
"@ 	c #BDBCBB",
"# 	c #858482",
"$ 	c #958BA0",
"% 	c #948A9F",
"& 	c #93899E",
"* 	c #766C7F",
"= 	c #756B7E",
"- 	c #746A7D",
"; 	c #0A0A0A",
"> 	c #72687B",
", 	c #72697B",
"' 	c #71687A",
") 	c #6C6375",
"! 	c #6F6678",
"~ 	c #2F2936",
"{ 	c #6D6476",
"] 	c #333333",
"^ 	c #675E6F",
"/ 	c #706779",
"( 	c #685F70",
"_ 	c #767676",
": 	c #282828",
"< 	c #645B6C",
"[ 	c #6D6375",
"} 	c #6F6577",
"| 	c #EFEFEF",
"1 	c #383838",
"2 	c #666666",
"3 	c #635B6B",
"4 	c #73697C",
"5 	c #615868",
"6 	c #FBFBFB",
"7 	c #6B6B6B",
"8 	c #5D5D5D",
"9 	c #484848",
"0 	c #5F5767",
"a 	c #E7E7E7",
"b 	c #505050",
"c 	c #5B5B5B",
"d 	c #808080",
"e 	c #2E2835",
"f 	c #2E2834",
"g 	c #2B2531",
"h 	c #25212B",
"i 	c #FCFCFC",
"j 	c #F9F9F9",
"k 	c #787878",
"l 	c #747474",
"m 	c #696969",
"n 	c #27222D",
"o 	c #2D2734",
"p 	c #E0E0E0",
"q 	c #2C2C2C",
"r 	c #8F8F8F",
"s 	c #434343",
"t 	c #F4F4F4",
"u 	c #F0F0F0",
"v 	c #E2E2E2",
"w 	c #C4C4C4",
"x 	c #F8F8F8",
"y 	c #FAFAFA",
"z 	c #474747",
"A 	c #858585",
"B 	c #616161",
"C 	c #565656",
"D 	c #323232",
"E 	c #CECECE",
"F 	c #E1E1E1",
"G 	c #EDEDED",
"H 	c #F2F2F2",
"I 	c #BCBBBA",
"J 	c #B9B8B7",
"K 	c #AEADAD",
"L 	c #979796",
"M 	c #FDFDFD",
"N 	c #BEBEBE",
"O 	c #8C8C8C",
"P 	c #4C4C4C",
"Q 	c #9F9E9D",
"R 	c #AEADAC",
"S 	c #B7B6B5",
"T 	c #BAB9B8",
"U 	c #F1F1F1",
"V 	c #606060",
"W 	c #3F3F3F",
"X 	c #2A2A2A",
"Y 	c #A09F9E",
"Z 	c #BBBAB9",
"` 	c #FEFEFE",
" .	c #969696",
"..	c #393939",
"+.	c #4F4F4F",
"@.	c #2B2B2B",
"#.	c #A09F9F",
"$.	c #AFAEAD",
"%.	c #E4E4E4",
"&.	c #F6F6F6",
"*.	c #3D3D3D",
"=.	c #636363",
"-.	c #5A5A5A",
";.	c #3C3C3C",
">.	c #8F8E8D",
",.	c #A5A4A3",
"'.	c #B2B1B0",
").	c #DFDFDF",
"!.	c #B0B0B0",
"~.	c #2F2F2F",
"{.	c #3D3D3C",
"].	c #5C5C5B",
"^.	c #7E7D7C",
"/.	c #9A9998",
"(.	c #ADACAB",
"_.	c #F7F7F7",
":.	c #525252",
"<.	c #0E0E0E",
"[.	c #1D1D1D",
"}.	c #353534",
"|.	c #535352",
"1.	c #757473",
"2.	c #949392",
"3.	c #A9A8A7",
"4.	c #B6B5B4",
"5.	c #EAEAEA",
"6.	c #D8D8D8",
"7.	c #141313",
"8.	c #252424",
"9.	c #5A5959",
"0.	c #7A7979",
"a.	c #969594",
"b.	c #ABAAA9",
"c.	c #848381",
"d.	c #82817F",
"e.	c #7B7A78",
"f.	c #6A6A68",
"g.	c #E6E6E6",
"h.	c #252524",
"i.	c #393838",
"j.	c #4D4D4B",
"k.	c #61605E",
"l.	c #706F6E",
"m.	c #81807E",
"n.	c #A5A5A5",
"o.	c #C6C6C6",
"p.	c #0B0B0B",
"q.	c #262626",
"r.	c #1E1E1E",
"s.	c #1C1C1C",
"t.	c #5E5E5E",
"u.	c #949494",
"v.	c #BDBDBD",
"w.	c #E8E8E8",
"x.	c #9B9A9A",
"y.	c #7B7B7A",
"z.	c #585757",
"A.	c #303030",
"B.	c #2E2E2E",
"C.	c #292929",
"D.	c #A6A6A6",
"E.	c #727170",
"F.	c #929191",
"G.	c #A8A8A7",
"H.	c #B5B4B3",
"I.	c #B1B0B0",
"J.	c #858484",
"K.	c #696868",
"L.	c #555454",
"M.	c #4E4E4D",
"N.	c #504F4F",
"O.	c #4F4E4E",
"P.	c #454544",
"Q.	c #898988",
"R.	c #A3A2A2",
"S.	c #B3B2B1",
"T.	c #B4B3B2",
"U.	c #A7A6A5",
"V.	c #807F7E",
"W.	c #737372",
"X.	c #727271",
"Y.	c #656564",
"Z.	c #4C4B4B",
"`.	c #B5B5B5",
" +	c #848484",
".+	c #7B7A79",
"++	c #999897",
"@+	c #989797",
"#+	c #929190",
"$+	c #949493",
"%+	c #91908F",
"&+	c #80807F",
"*+	c #646363",
"=+	c #8C8C8B",
"-+	c #A6A5A4",
";+	c #B1B0AF",
">+	c #ABABAA",
",+	c #AAA9A8",
"'+	c #959494",
")+	c #797878",
"!+	c #555555",
"~+	c #5B5A5A",
"{+	c #9D9D9C",
"]+	c #B0AFAE",
"^+	c #B8B7B6",
"/+	c #8B8A89",
"(+	c #282727",
"_+	c #363535",
":+	c #545453",
"<+	c #787877",
"[+	c #7C7B7B",
"}+	c #40403F",
"|+	c #595958",
"1+	c #838280",
"2+	c #7E7D7B",
"3+	c #747372",
"4+	c #646362",
"5+	c #50504F",
"6+	c #3F3F3E",
"7+	c #383737",
"8+	c #3D3C3B",
"9+	c #4C4B4A",
"0+	c #5E5E5C",
"a+	c #706F6D",
"b+	c #7C7B79",
"                                                                                                ",
"                                                                                                ",
"                                                                                                ",
"                                                                                                ",
"        . . . . . . . . . . . . . . . . . . . . . . . . . . . . . . . . . . . . . . .           ",
"        . + + + + + + + + + + + + + + + + + + + + + + + + + + + + + + + + + + + + + .           ",
"        . + @ @ @ @ @ @ @ @ @ @ @ @ @ @ @ @ @ @ @ @ @ @ @ @ @ @ @ @ @ @ @ @ @ @ @ @ .           ",
"        . + @ @ @ @ @ @ @ @ @ @ @ @ @ @ @ @ @ @ @ @ @ @ @ @ @ @ @ @ @ @ @ @ @ @ @ # .           ",
"        . + @ @ @ @ @ @ @ @ @ @ @ @ @ @ @ @ @ @ @ @ @ @ @ @ @ @ @ @ @ @ @ @ @ @ @ # .           ",
"        . + @ @ @ @ @ @ @ @ @ @ @ @ @ @ @ @ @ @ @ @ @ @ @ @ @ @ @ @ @ @ @ @ @ @ @ # .           ",
"        . + @ @ @ @ @ @ @ @ @ @ @ @ @ @ @ @ @ @ @ @ @ @ @ @ @ @ @ @ @ @ @ @ @ @ @ # .           ",
"        . + @ @ @ @ @ @ @ @ @ @ @ @ @ @ @ @ @ @ @ @ @ @ @ @ @ @ @ @ @ @ @ @ @ @ @ # .           ",
"        . + @ @ @ @ @ @ @ @ @ @ @ @ @ @ @ @ @ @ @ @ @ @ @ @ @ @ @ @ @ @ @ @ @ @ @ # .           ",
"        . + @ # # # # # # # # # # # # # # # # # # # # # # # # # # # # # # # # # # # .           ",
"        . . . . . . . . . . . . . . . . . . . . . . . . . . . . . . . . . . . . . . .           ",
"        . $ $ $ $ $ $ $ $ % & & % % $ $ $ $ $ $ $ $ $ $ $ $ $ $ $ $ $ $ $ $ $ $ $ $ .           ",
"        . $ * * * * * = - ; ; > , - = * * * * * * * * * * * * * * * * * * * * * * * .           ",
"        . $ * * * * = - ' ; ; ; ) ! , = * * * * * * * * * * * * * * * * * * * * * ~ .           ",
"        . $ * * * * = , { ; ] ; ; ^ { > - * * * * * * * * * * * * * * * * * * * * ~ .           ",
"        . $ * * * * - / ( ; _ : ; ; < [ > - * * * * * * * * * * * * * * * * * * * ~ .           ",
"        . $ * * * * - } < ; | 1 2 ; ; 3 ) > - * * * * * * * * * * * * * * * * * * ~ .           ",
"        . $ * * * = 4 { 5 ; 6 7 8 9 ; ; 3 ) > - * * * * * * * * * * * * * * * * * ~ .           ",
"        . $ * * * = 4 [ 0 ; 6 a b c d ; ; 3 ) > - * * * * * * * * * * * * * * * * ~ .           ",
"        . $ * ~ ~ e f g h ; i j k 9 l m ; ; n g o e ~ ~ ~ ~ ~ ~ ~ ~ ~ ~ ~ ~ ~ ~ ~ ~ .           ",
"        . . . . . . . . . ; j 6 p q r s c ; ; . . . . . . . . . . . . . . . . . . . .           ",
"        . + + + + t u v w ; x i y z A B C D ; ; E F G H + + + + + + + + + + + + + + .           ",
"        . + @ @ @ I J K L ; + y M N b O P b D ; ; Q R S T @ @ @ @ @ @ @ @ @ @ @ @ @ .           ",
"        . + @ @ @ I J K L ; U j y j P 8 V B W X ; ; Y K S Z @ @ @ @ @ @ @ @ @ @ @ # .           ",
"        . + @ @ @ I J K L ; u y + `  ...8 +.9 @.q ; ; #.$.S Z @ @ @ @ @ @ @ @ @ @ # .           ",
"        . + @ @ @ I J K L ; %.+ &.y u *.=.=.-.;.; ; ; >.,.'.T I @ @ @ @ @ @ @ @ @ # .           ",
"        . + @ @ @ I J K L ; ).+ &.t ` !.~.A ; ; ; {.].^./.(.S Z @ @ @ @ @ @ @ @ @ # .           ",
"        . + @ @ @ I J K L ; U _._.+ 6 M :.; ; <.[.}.|.1.2.3.4.Z @ @ @ @ @ @ @ @ @ # .           ",
"        . + @ @ @ I J K L ; 5.u t G ; ` 6.z ; 7.8.{.9.0.a.b.4.Z @ @ @ @ @ @ @ @ @ # .           ",
"        . + @ # # c.d.e.f.; g.v ; ; ; ; j -.; ; h.i.j.k.l.e.m.c.# # # # # # # # # # .           ",
"        . . . . . . . . . ; ; ; ; . . ; ` n.B ; . . . . . . . . . . . . . . . . . . .           ",
"        . + + + + t u v o.; p.*.q.r.s.; ; U t.; ; u.v.6.w.u t + + + + + + + + + + + .           ",
"        . + @ @ @ I J $.x.y.z.{.A.B.B.C.; ` D.-.; E.F.G.H.T @ @ @ @ @ @ @ @ @ @ @ @ .           ",
"        . + @ @ @ @ T I.Y J.K.L.M.N.O.P.; ; a _ ; ; Q.R.S.T @ @ @ @ @ @ @ @ @ @ @ # .           ",
"        . + @ @ @ @ T T.U.2.V.W.E.1.X.Y.Z.; ` `. +; .+++R S I @ @ @ @ @ @ @ @ @ @ # .           ",
"        . + @ @ @ @ Z S $.R.@+#+F.$+%+&+*+; ; x `.; ; =+-+T.T @ @ @ @ @ @ @ @ @ @ # .           ",
"        . + @ @ @ @ I T 4.;+>+3.,+b.-+'+)+!+; ; ; ; ~+V.{+]+J I @ @ @ @ @ @ @ @ @ # .           ",
"        . + @ @ @ @ @ I T ^+S 4.S 4.I.R./+K.; ; (+_+:+<+@+(.S I @ @ @ @ @ @ @ @ @ # .           ",
"        . + @ @ @ @ @ @ @ I Z Z Z T S (./.[+~+}+_+W |+.+@+(.S I @ @ @ @ @ @ @ @ @ # .           ",
"        . + @ # # # # # # # # # # c.1+2+3+4+5+6+7+8+9+0+a+b+m.c.# # # # # # # # # # .           ",
"        . . . . . . . . . . . . . . . . . . . . . . . . . . . . . . . . . . . . . . .           ",
"                                                                                                ",
"                                                                                                ",
"                                                                                                "};
