/* XPM */
static const char * icon24_xpm[] = {
"24 24 130 2",
"  	c None",
". 	c #3D3D3D",
"+ 	c #7A7A7A",
"@ 	c #000000",
"# 	c #BDBCBB",
"$ 	c #AFAEAD",
"% 	c #A1A09E",
"& 	c #939290",
"* 	c #252328",
"= 	c #4A4650",
"- 	c #4A4550",
"; 	c #4A444F",
"> 	c #766C7F",
", 	c #756B7E",
"' 	c #3E3A43",
") 	c #242226",
"! 	c #706779",
"~ 	c #746B7E",
"{ 	c #645B6D",
"] 	c #73697C",
"^ 	c #3A363E",
"/ 	c #373737",
"( 	c #211F23",
"_ 	c #6C6274",
": 	c #746A7D",
"< 	c #524A5A",
"[ 	c #71677A",
"} 	c #36323A",
"| 	c #A3A3A3",
"1 	c #454545",
"2 	c #201E22",
"3 	c #6B6274",
"4 	c #4E4656",
"5 	c #26232A",
"6 	c #F6F6F6",
"7 	c #5B5B5B",
"8 	c #5A5A5A",
"9 	c #4C4454",
"0 	c #514959",
"a 	c #413A48",
"b 	c #747474",
"c 	c #363636",
"d 	c #FAFAFA",
"e 	c #939393",
"f 	c #6E6E6E",
"g 	c #3B3B3B",
"h 	c #080808",
"i 	c #6C6C6C",
"j 	c #787878",
"k 	c #BCBCBA",
"l 	c #B4B2B2",
"m 	c #505050",
"n 	c #ECECEC",
"o 	c #616161",
"p 	c #575757",
"q 	c #292929",
"r 	c #2F2F2F",
"s 	c #ADACAB",
"t 	c #BAB9B8",
"u 	c #F1F1F1",
"v 	c #F9F9F9",
"w 	c #7F7F7F",
"x 	c #5C5C5C",
"y 	c #424242",
"z 	c #121212",
"A 	c #515050",
"B 	c #BCBABA",
"C 	c #EFEFEF",
"D 	c #EAEAEA",
"E 	c #444444",
"F 	c #0B0B0B",
"G 	c #262626",
"H 	c #686867",
"I 	c #A1A09F",
"J 	c #B9B8B7",
"K 	c #A0A09E",
"L 	c #999897",
"M 	c #454544",
"N 	c #E8E8E8",
"O 	c #7D7D7D",
"P 	c #474747",
"Q 	c #9C9C9C",
"R 	c #0C0C0C",
"S 	c #30302F",
"T 	c #60605F",
"U 	c #8B8A89",
"V 	c #9E9C9B",
"W 	c #171717",
"X 	c #141414",
"Y 	c #A8A8A8",
"Z 	c #353535",
"` 	c #282828",
" .	c #656565",
"..	c #767676",
"+.	c #B5B4B3",
"@.	c #8F8E8E",
"#.	c #555454",
"$.	c #3F3F3E",
"%.	c #3B3A3A",
"&.	c #979797",
"*.	c #242424",
"=.	c #9A9998",
"-.	c #B7B6B5",
";.	c #B8B7B6",
">.	c #A3A2A2",
",.	c #878686",
"'.	c #838282",
").	c #7A7A79",
"!.	c #313030",
"~.	c #ADADAD",
"{.	c #535353",
"].	c #6A6A69",
"^.	c #B0AFAE",
"/.	c #BCBBBA",
"(.	c #B6B5B4",
"_.	c #B0B0AE",
":.	c #A4A3A2",
"<.	c #707070",
"[.	c #0A0A0A",
"}.	c #1C1C1C",
"|.	c #6A6968",
"1.	c #A4A4A3",
"2.	c #A09F9E",
"3.	c #A09E9D",
"4.	c #7C7A7A",
"5.	c #4A4A4A",
"6.	c #3A3A3A",
"7.	c #605F5E",
"8.	c #8C8B8A",
"9.	c #9E9D9C",
"                                                ",
"                                                ",
"    . + + + + + + + + + + + + + + + + + + @     ",
"    + # # # # # # # # # # # # # # # # # $ @     ",
"    + # # # # # # # # # # # # # # # # # % @     ",
"    + # # # # # # # # # # # # # # # # # % @     ",
"    + $ % % % % % % % % % % % % % % % % & @     ",
"    * = = = - ; - = = = = = = = = = = = = @     ",
"    = > > , ' ) ! ~ > > > > > > > > > > { @     ",
"    = > > ] ^ / ( _ : > > > > > > > > > < @     ",
"    = > > [ } | 1 2 3 : > > > > > > > > < @     ",
"    = { < 4 5 6 7 8 2 9 0 < < < < < < < a @     ",
"    . + + b c d e f g h i j + + + + + + + @     ",
"    + # k l m 6 n o p q r s t # # # # # $ @     ",
"    + # k l m u v w x y z A $ B # # # # % @     ",
"    + # k l m C 6 D E F G H I J # # # # % @     ",
"    + $ K L M N O P Q R S T U V % % % % & @     ",
"    . + + b c W X R Y Z `  ...+ + + + + + @     ",
"    + # # +.@.#.$.%.P &.*.=.-.# # # # # $ @     ",
"    + # # ;.>.,.'.).!.~.{.].^./.# # # # % @     ",
"    + # # /.(._._.:.<.[.}.|.1.t # # # # % @     ",
"    + $ % % % 2.3.L 4.5.6.7.8.9.% % % % & @     ",
"    @ @ @ @ @ @ @ @ @ @ @ @ @ @ @ @ @ @ @       ",
"                                                "};
